<svg xmlns="http://www.w3.org/2000/svg" width="16" height="17" viewBox="0 0 16 17">
    <g fill="none" fill-rule="evenodd">
        <g fill="#333" fill-rule="nonzero">
            <g>
                <g>
                    <g>
                        <path d="M0 16.076l1.13-4.128C.433 10.74.066 9.37.067 7.965.069 3.574 3.643 0 8.033 0c2.131 0 4.131.83 5.636 2.336C15.173 3.842 16 5.844 16 7.973c-.002 4.392-3.576 7.965-7.967 7.965-1.333 0-2.646-.335-3.81-.97L0 16.076zm4.419-2.55c1.123.667 2.194 1.066 3.612 1.067 3.65 0 6.622-2.97 6.624-6.622.001-3.659-2.957-6.625-6.619-6.626-3.652 0-6.623 2.97-6.624 6.62 0 1.491.436 2.607 1.17 3.775l-.67 2.443 2.507-.657zm7.628-3.66c-.05-.083-.183-.132-.382-.232-.2-.1-1.178-.582-1.36-.648-.183-.066-.316-.1-.449.1-.132.199-.514.648-.63.78-.116.133-.233.15-.432.05-.199-.1-.84-.31-1.6-.988-.592-.528-.992-1.18-1.108-1.38-.116-.198-.012-.306.087-.405.09-.09.2-.233.3-.35.1-.115.133-.198.2-.331.066-.133.034-.25-.017-.349-.05-.1-.448-1.08-.613-1.478-.162-.387-.327-.335-.448-.341l-.382-.007c-.133 0-.349.05-.53.25-.183.199-.697.68-.697 1.66 0 .98.713 1.926.812 2.059.1.133 1.403 2.143 3.4 3.005.475.205.846.328 1.135.42.477.151.911.13 1.254.079.382-.057 1.178-.482 1.344-.947.166-.465.166-.864.116-.947z" transform="translate(-1165 -666) translate(1015 644) translate(31 18) translate(119 4)"/>
                    </g>
                </g>
            </g>
        </g>
    </g>
</svg>
