<svg xmlns="http://www.w3.org/2000/svg" width="102" height="74" viewBox="0 0 102 74">
    <g fill="none" fill-rule="evenodd">
        <g>
            <g>
                <path fill="#A3D1E4" d="M60 74c23.748 0 43-13.252 43-37 0-23.748-19.252-37-43-37S17 13.252 17 37c0 23.748 19.252 37 43 37z" transform="translate(-1107 -954) translate(1106 954)"/>
                <path fill="#E2AC07" fill-rule="nonzero" d="M2.737 30.461L35.444 30.456 35.44 55.055 2.732 55.06z" transform="translate(-1107 -954) translate(1106 954) scale(-1 1) rotate(4.354 0 -459.34)"/>
                <path fill="#EFEDEC" fill-rule="nonzero" d="M29.901 32.458c0 1.77-.282 3.3-.848 4.589-.553 1.288-1.339 2.354-2.359 3.197-1.008.843-2.224 1.47-3.65 1.879-1.413.397-2.98.596-4.7.596-1.72 0-3.288-.199-4.7-.596-1.414-.41-2.63-1.036-3.65-1.879-1.008-.843-1.795-1.909-2.36-3.197-.553-1.289-.83-2.818-.83-4.589V16.435h7.024V31.32c0 .855.067 1.662.202 2.42.136.76.369 1.428.7 2.006.345.566.806 1.018 1.383 1.355.59.337 1.334.506 2.23.506.898 0 1.635-.169 2.213-.506.59-.337 1.057-.789 1.4-1.355.345-.578.584-1.246.72-2.005.135-.759.202-1.566.202-2.42V16.434h7.023v16.023z" transform="translate(-1107 -954) translate(1106 954) scale(1 -1) rotate(4.354 796.343 0)"/>
                <path fill="#FFF" fill-rule="nonzero" d="M32.694 32.173c0 1.77-.282 3.3-.848 4.589-.553 1.288-1.34 2.354-2.36 3.197-1.007.843-2.223 1.47-3.649 1.879-1.413.397-2.98.596-4.7.596-1.72 0-3.288-.199-4.7-.596-1.414-.41-2.63-1.036-3.65-1.879-1.008-.843-1.795-1.909-2.36-3.197-.553-1.289-.83-2.818-.83-4.589V16.15h7.023v14.885c0 .855.068 1.662.203 2.42.135.76.369 1.428.7 2.006.345.566.806 1.018 1.383 1.355.59.337 1.333.506 2.23.506.898 0 1.635-.169 2.213-.506.59-.337 1.056-.789 1.4-1.355.345-.578.584-1.246.72-2.005.135-.759.202-1.566.202-2.42V16.15h7.023v16.023z" transform="translate(-1107 -954) translate(1106 954) scale(1 -1) rotate(4.355 791.602 0)"/>
                <path fill="#F9C526" fill-rule="nonzero" d="M5.52 30.173L38.228 30.174 38.228 54.773 5.521 54.772z" transform="translate(-1107 -954) translate(1106 954) scale(-1 1) rotate(4.355 0 -532.878)"/>
                <path fill="#565D63" fill-rule="nonzero" d="M22.438 35.353c-2.208-.05-4.041 1.637-4.093 3.77-.031 1.349.67 2.616 1.85 3.34l-.926 6.76 5.657.13-.547-6.818c1.188-.678 1.93-1.899 1.963-3.23.053-2.132-1.695-3.901-3.904-3.952z" transform="translate(-1107 -954) translate(1106 954) scale(-1 1) rotate(3 0 -810.916)"/>
            </g>
        </g>
    </g>
</svg>
