<svg xmlns="http://www.w3.org/2000/svg" width="116" height="74" viewBox="0 0 116 74">
    <g fill="none" fill-rule="evenodd">
        <g>
            <g>
                <path fill="#A3D1E4" d="M76 74c23.748 0 43-13.252 43-37 0-23.748-19.252-37-43-37S33 13.252 33 37c0 23.748 19.252 37 43 37z" transform="translate(-457 -1228) translate(454 1228)"/>
                <g>
                    <path fill="#E7E5E2" d="M4.888 47.416L3.534 46.608 2.888 5.416 4.441 6.898z" transform="translate(-457 -1228) translate(454 1228) rotate(-2.978 112.441 -2.47)"/>
                    <g>
                        <g>
                            <g>
                                <path fill="#978E84" fill-rule="nonzero" d="M28.164 39.35c-3.082.003-5.819 1.816-6.803 4.506h13.604c-.984-2.69-3.72-4.502-6.8-4.505z" transform="translate(-457 -1228) translate(454 1228) rotate(-2.978 112.441 -2.47) translate(.509 .992) translate(.124 .198) rotate(-4.953 65.079 -5.823)"/>
                                <path fill="#AEA79F" d="M61.281 4.598L58.636 40.96 0.043 40.4 2.912 0.218z" transform="translate(-457 -1228) translate(454 1228) rotate(-2.978 112.441 -2.47) translate(.509 .992) translate(.124 .198) rotate(-4.953 65.079 -5.823)"/>
                                <path fill="#474747" d="M57.363 8.364L7.342 5.048 4.225 36.887 54.814 38.099z" transform="translate(-457 -1228) translate(454 1228) rotate(-2.978 112.441 -2.47) translate(.509 .992) translate(.124 .198) rotate(-4.953 65.079 -5.823)"/>
                                <g fill="#5C5C5C">
                                    <path d="M13.393 0.047L16.503 31.729 4.315 32.02 0.204 0.919z" transform="translate(-457 -1228) translate(454 1228) rotate(-2.978 112.441 -2.47) translate(.509 .992) translate(.124 .198) rotate(-4.953 65.079 -5.823) matrix(-1 0 0 1 20.727 5.027)"/>
                                </g>
                                <g fill="#1FCBB0" fill-rule="nonzero">
                                    <path d="M.959 1.693l24.353.007.064-1.56L1.026.13.96 1.693zM.824 4.895l17.44-.001.066-1.648L.89 3.239.824 4.895zM.657 8.781l23.634.013.081-1.787L.738 6.993l-.08 1.788zM.557 11.287l15.027.006.06-1.419L.611 9.87l-.054 1.418zM.454 13.724l-.051 1.304 10.97-.004.055-1.304-10.974.004zM.216 19.883l16.427.003.057-1.519-16.428-.004-.056 1.52z" transform="translate(-457 -1228) translate(454 1228) rotate(-2.978 112.441 -2.47) translate(.509 .992) translate(.124 .198) rotate(-4.953 65.079 -5.823) rotate(2.939 -225.906 238.486)"/>
                                </g>
                            </g>
                            <path fill="#AEA79F" d="M56.816 46.838L61.057 59.86 13.382 62.412 9.802 46.483z" transform="translate(-457 -1228) translate(454 1228) rotate(-2.978 112.441 -2.47) translate(.509 .992) translate(.124 .198)"/>
                            <path fill="#E7E5E2" d="M9.819 46.444L9.866 52.019 12.878 65.758 14.382 62.194z" transform="translate(-457 -1228) translate(454 1228) rotate(-2.978 112.441 -2.47) translate(.509 .992) translate(.124 .198)"/>
                            <path fill="#CECAC5" d="M14.34 62.162L61.064 59.839 60.437 62.344 12.705 65.83zM2.518 4.055L59.431 2.659 62.22 4.922 3.654 5.79z" transform="translate(-457 -1228) translate(454 1228) rotate(-2.978 112.441 -2.47) translate(.509 .992) translate(.124 .198)"/>
                        </g>
                        <g fill="#90877C" fill-rule="nonzero">
                            <path d="M.636 3.804l3.678.019-.64-3.339L.008.42l.629 3.384zM4.932 3.83l4.029.039L8.314.583 4.302.498l.63 3.332zM9.674 3.887c1.452.01 2.905.018 4.357.027l-.58-3.189L9.023.603l.65 3.284zM14.2.738l.577 3.163 4.447-.14-.438-3.07L14.2.738zM19.542.665l.418 3.072 4.015-.121L23.67.524l-4.129.141zM26.701 3.671l3.867-.072-.45-2.922L26.38.604l.322 3.067zM30.965.648l.469 2.912 4.447-.223-.619-2.86-4.297.171zM36.203.427l.647 2.856 4.78-.251L40.89.16l-4.687.267zM1.595 7.621l3.777-.064-.934-3.233L.745 4.32l.85 3.301zM6.024 7.544l4.108-.06-1.027-3.116-4.043-.04.962 3.216zM9.811 4.383l1.004 3.089 4.3-.179-.96-2.916-4.344.006zM14.885 4.354l.928 2.912 4.213-.204-.7-2.85-4.441.142zM20.035 4.181l.678 2.85 3.892-.08-.564-2.88-4.006.11zM26.78 4.11l.65 2.805 4.031-.176-.793-2.712-3.887.083zM31.543 3.989l.81 2.699 4.587-.232-.943-2.707-4.454.24zM36.972 3.703l.952 2.709 4.777-.169-.95-2.787-4.779.247zM1.755 8.245l.76 3.278 3.903-.149-.873-3.21-3.79.081zM6.206 8.153l.876 3.208 4.184-.237-.937-3.051-4.123.08zM11.017 8.05l.952 3.017 4.193-.328c-.29-.966-.578-1.932-.866-2.898l-4.279.209zM16 7.807l.837 2.892 4-.233-.67-2.87-4.168.211zM20.845 7.57c.21.956.418 1.913.627 2.869l3.87-.069-.614-2.877-3.883.077zM27.56 7.444l.69 2.838 4.19-.217-.815-2.805-4.066.184zM32.526 7.207l.838 2.805 4.643-.187-.896-2.852-4.585.234zM38.109 6.936l.896 2.852 4.688-.047-.812-2.954-4.772.149z" transform="translate(-457 -1228) translate(454 1228) rotate(-2.978 112.441 -2.47) translate(.509 .992) translate(14.376 48.816)"/>
                        </g>
                    </g>
                </g>
            </g>
        </g>
    </g>
</svg>
