<svg xmlns="http://www.w3.org/2000/svg" width="16" height="15" viewBox="0 0 16 15">
    <g fill="none" fill-rule="evenodd">
        <g fill="#FFF">
            <g>
                <g>
                    <path d="M134.111 15.417c-1.111 0-2.178-.167-3.173-.475-.311-.092-.658-.025-.907.2l-1.955 1.833c-2.516-1.2-4.578-3.125-5.858-5.483l1.955-1.842c.25-.225.32-.55.223-.842-.33-.933-.507-1.933-.507-2.975 0-.458-.4-.833-.889-.833h-3.111c-.489 0-.889.375-.889.833C119 13.658 125.764 20 134.111 20c.489 0 .889-.375.889-.833V16.25c0-.458-.4-.833-.889-.833z" transform="translate(-1165 -503) translate(1015 480) translate(31 18)"/>
                </g>
            </g>
        </g>
    </g>
</svg>
