<svg xmlns="http://www.w3.org/2000/svg" width="90" height="74" viewBox="0 0 90 74">
    <g fill="none" fill-rule="evenodd">
        <g>
            <g>
                <path fill="#C6C1BC" d="M89 46l-6.28-15.06 2-1.2c.1-.169-5.038-20.011-5.12-20.32-4.24.48-8.5 1.2-12.74 1.6-3.886.126-7.77-.333-11.52-1.36-10.627-2.187-21.187-4.633-31.68-7.34-3.74-.96-9.82-2.8-12.52.96-.324.492-.599 1.014-.82 1.56C6.48 16.18 3 30 6.66 41.74c2.363 6.676 6.456 12.604 11.86 17.18 3.143 2.738 6.486 5.238 10 7.48 2 1.24 5.24 4.32 7.6 4 .881-.212 1.694-.646 2.36-1.26 6.335-5.13 12.346-10.648 18-16.52 2.84-2.92 5.62-5.9 8.38-8.9 2.364-2.906 4.996-5.585 7.86-8 .937-.67 1.943-1.24 3-1.7l4.24 17.56L89 46z" transform="translate(-599 -123) rotate(19 -48.413 1876.802)"/>
                <path fill="#F3F2F1" d="M83.845 27.521L79.717 12.274 66.806 14.215 72.48 32.274z" transform="translate(-599 -123) rotate(19 -48.413 1876.802)"/>
                <path fill="#DD4814" d="M88.057 8.31L78.475 9.531 83.867 30.31 91.345 27.003z" transform="translate(-599 -123) rotate(19 -48.413 1876.802)"/>
                <path fill="#DD4814" fill-rule="nonzero" d="M14.52.76C11.095.95 7.902 2.55 5.7 5.18c-1.794 2.37-3.056 5.098-3.7 8C.818 18.384.621 23.763 1.42 29.04c.528 3.938 1.412 7.82 2.64 11.6 1.852 5.726 4.419 11.196 7.64 16.28 2.594 4.232 5.903 7.98 9.78 11.08 2.537 2.026 5.555 3.362 8.76 3.88 2.508.397 5.074-.152 7.2-1.54 2.33-1.664 4.135-3.962 5.2-6.62 1.68-4.22 2.483-8.739 2.36-13.28-.035-3.682-.424-7.352-1.16-10.96-1.054-5.157-2.677-10.181-4.84-14.98-2.58-6.015-6.202-11.526-10.7-16.28C25.38 5.16 21.72 1.64 17.34.9c-.931-.157-1.878-.204-2.82-.14z" transform="translate(-599 -123) rotate(19 -48.413 1876.802)"/>
                <path fill="#ECEBE9" fill-rule="nonzero" d="M16.28 8.84c3.9.8 7.36 4.72 9.48 7.8.669.935 1.29 1.903 1.86 2.9.76 1.36 1.54 2.74 2.2 4.16.66 1.42 1.56 3.3 2.22 5.02 1.16 2.947 2.18 5.94 3.06 8.98.48 1.74.98 3.5 1.34 5.28.36 1.78.62 3.32.88 4.98.16 1.22.26 2.42.32 3.64.07 1.266.07 2.534 0 3.8-.103 1.197-.317 2.382-.64 3.54-.18.62-.4 1.22-.64 1.82-.375.866-.88 1.668-1.5 2.38-.426.443-.888.851-1.38 1.22-.534.334-1.113.59-1.72.76-1.057.2-2.143.2-3.2 0-1.26-.235-2.465-.695-3.56-1.36-1.069-.663-2.067-1.434-2.98-2.3-1.262-1.235-2.42-2.573-3.46-4-1.059-1.461-2.04-2.976-2.94-4.54-1.053-1.84-2.033-3.72-2.94-5.64-.72-1.58-1.4-3.18-2-4.82-.6-1.64-1.24-3.26-1.68-4.92-.4-1.26-.78-2.52-1.1-3.8-1.098-4.266-1.642-8.655-1.62-13.06-.111-2.922.647-5.81 2.18-8.3 1.615-2.495 4.48-3.889 7.44-3.62l.38.08z" transform="translate(-599 -123) rotate(19 -48.413 1876.802)"/>
                <path fill="#BB3D11" fill-rule="nonzero" d="M30.32 24.9c-.972.066-1.93.274-2.84.62-.72.313-1.392.724-2 1.22-.868.826-1.55 1.829-2 2.94-.342.865-.558 1.774-.64 2.7-.06.558-.06 1.122 0 1.68.07.681.218 1.352.44 2 .349 1.137.935 2.187 1.72 3.08.521.625 1.143 1.159 1.84 1.58.728.458 1.525.796 2.36 1 2.037.46 4.171-.034 5.8-1.34.34-.22.76-.46.84-.92-.031-.528-.167-1.045-.4-1.52-1.44-4.333-2.893-8.66-4.36-12.98h-.78l.02-.06z" transform="translate(-599 -123) rotate(19 -48.413 1876.802)"/>
            </g>
        </g>
    </g>
</svg>
