<svg xmlns="http://www.w3.org/2000/svg" width="115" height="74" viewBox="0 0 115 74">
    <g fill="none" fill-rule="evenodd">
        <g>
            <g>
                <path fill="#9BDEDF" d="M72 74c23.748 0 43-13.252 43-37 0-23.748-19.252-37-43-37S29 13.252 29 37c0 23.748 19.252 37 43 37z" transform="translate(-918 -2287) translate(918 2287)"/>
                <g>
                    <path fill="#7FAA59" d="M19.49 49.917L65.826 50s.766-.008 1.034-.408c.26-.388.08-.92.08-.92L59.06 8.504s-.253-.756-.496-1.005c-.243-.25-.96-.489-.96-.489H12.21s-1.414-.067-1.967.143c-.49.185-.088 1.434-.088 1.434l7.622 39.587s.132.69.553 1.14c.42.45 1.16.603 1.16.603z" transform="translate(-918 -2287) translate(918 2287) translate(0 14)"/>
                    <path fill="#5A7A3E" d="M39.574 49.917L61.815 50s.773-.007 1.044-.408c.261-.388.08-.92.08-.92l-7.95-40.168s-.254-.756-.499-1.005c-.245-.25-.969-.489-.969-.489H32.23s-1.427-.067-1.985.143c-.494.185-.089 1.434-.089 1.434l7.69 39.587s.132.69.557 1.14c.424.45 1.17.603 1.17.603z" transform="translate(-918 -2287) translate(918 2287) translate(0 14)"/>
                    <path fill="#BABDB6" fill-rule="nonzero" d="M19.214 0C20.753 0 22 4.253 22 9.5S20.753 19 19.214 19c-.378-.625-.793-.95-1.214-.95l.018-4.259c.116.708.258 1.362.422 1.947l.067-.15c.472-1.753.733-4.045.733-6.423 0-2.474-.285-4.848-.79-6.619-.15.53-.28 1.116-.39 1.748l.014-3.462c.359-.549.747-.832 1.14-.832zM30.214 0C31.753 0 33 4.253 33 9.5S31.753 19 30.214 19c-.378-.625-.793-.95-1.214-.95l.018-4.259c.116.708.258 1.362.422 1.947l.067-.15c.472-1.753.733-4.045.733-6.423 0-2.474-.285-4.848-.79-6.619-.15.53-.28 1.116-.39 1.748l.014-3.462c.359-.549.747-.832 1.14-.832zM42.214 0C43.753 0 45 4.253 45 9.5S43.753 19 42.214 19c-.378-.625-.793-.95-1.214-.95l.018-4.259c.116.708.258 1.362.422 1.947l.067-.15c.472-1.753.733-4.045.733-6.423 0-2.474-.285-4.848-.79-6.619-.15.53-.28 1.116-.39 1.748l.014-3.462c.359-.549.747-.832 1.14-.832z" transform="translate(-918 -2287) translate(918 2287) translate(0 14)"/>
                    <path fill="#8DBD63" d="M9.49 7.087L55.826 7s.766.008 1.034.427c.26.406.08.963.08.963l-7.88 42.036s-.253.792-.496 1.052-.96.511-.96.511H2.21s-1.414.07-1.967-.15c-.49-.193-.088-1.5-.088-1.5L7.777 8.911s.132-.723.553-1.193c.42-.47 1.16-.631 1.16-.631z" transform="translate(-918 -2287) translate(918 2287) translate(0 14)"/>
                    <path fill="#F7F7F6" d="M10.393 12l-.48 2.628c.131.007.26.026.388.058 1.277.325 2.015 1.815 1.647 3.329-.368 1.514-1.702 2.478-2.98 2.153l-.063-.02L4 47h41.932l4.733-27.126c-.067-.01-.133-.022-.198-.038-1.278-.325-2.015-1.815-1.647-3.329.35-1.438 1.578-2.394 2.814-2.188L52 12.221 10.393 12zm9.04 2.183c.136.007.271.027.403.06 1.277.325 2.015 1.815 1.647 3.329-.368 1.514-1.703 2.478-2.98 2.153-1.278-.325-2.015-1.815-1.647-3.329.324-1.334 1.412-2.268 2.577-2.213zm10.293 0c.137.007.271.027.403.06 1.278.325 2.015 1.815 1.647 3.329-.368 1.514-1.702 2.478-2.98 2.153-1.277-.325-2.015-1.815-1.647-3.329.325-1.334 1.413-2.268 2.577-2.213zm11.052 0c.137.007.271.027.403.06 1.278.325 2.015 1.815 1.647 3.329-.368 1.514-1.702 2.478-2.98 2.153-1.277-.325-2.015-1.815-1.647-3.329.325-1.334 1.413-2.268 2.577-2.213z" transform="translate(-918 -2287) translate(918 2287) translate(0 14)"/>
                    <path fill="#E6E6E4" d="M23.233 22L48 22.218 45.37 38.663 36.822 38.554 35.836 44 8 43.891 11.507 27.663 21.918 27.554z" transform="translate(-918 -2287) translate(918 2287) translate(0 14)"/>
                    <path fill="#D3D7CF" fill-rule="nonzero" d="M18.482 0C16.559 0 15 3.806 15 8.5s1.559 8.5 3.482 8.5c.473-.56.992-.85 1.518-.85l-.023-3.81c-.145.633-.322 1.218-.527 1.741l-.084-.134c-.59-1.568-.917-3.619-.917-5.747.002-2.213.357-4.337.99-5.922.186.474.35.998.487 1.564l-.02-3.098C19.46.254 18.974 0 18.483 0zM29.482 0C27.559 0 26 3.806 26 8.5s1.559 8.5 3.482 8.5c.473-.56.992-.85 1.518-.85l-.023-3.81c-.145.633-.322 1.218-.527 1.741l-.084-.134c-.59-1.568-.917-3.619-.917-5.747.002-2.213.357-4.337.99-5.922.186.474.35.998.487 1.564l-.02-3.098C30.46.254 29.974 0 29.483 0zM41.482 0C39.559 0 38 3.806 38 8.5s1.559 8.5 3.482 8.5c.473-.56.992-.85 1.518-.85l-.023-3.81c-.145.633-.322 1.218-.527 1.741l-.084-.134c-.59-1.568-.917-3.619-.917-5.747.002-2.213.357-4.337.99-5.922.186.474.35.998.487 1.564l-.02-3.098C42.46.254 41.974 0 41.483 0z" transform="translate(-918 -2287) translate(918 2287) translate(0 14)"/>
                    <g fill="#DD4814" fill-rule="nonzero">
                        <path d="M1.317.433c.207.183.416.364.629.54.283.252.576.492.859.744.216.196.442.383.669.567.162.133.329.262.496.388.137.12.287.222.43.333.109.091.13.104.191.147.07.036.147.106.234.162l.013.01c.85.607-.004 1.815-.854 1.208l-.04-.03c-.019-.013-.038-.025-.054-.04-.01-.01.044.029.033.021-.059-.04-.059-.04-.146-.095-.097-.067-.191-.14-.284-.215-.13-.112-.283-.198-.409-.316-.181-.137-.36-.276-.537-.42-.243-.199-.486-.399-.719-.61-.27-.24-.55-.47-.82-.71C.759 1.91.513 1.7.275 1.48-.46.74.581-.309 1.317.433z" transform="translate(-918 -2287) translate(918 2287) translate(0 14) rotate(3.773 -354.482 397.302)"/>
                        <path d="M4.73 1.24c-.166.15-.336.298-.497.454-.146.146-.296.29-.439.44-.156.15-.313.3-.463.457-.13.124-.259.25-.38.38-.105.123-.229.231-.34.348-.086.087-.169.174-.241.27-.077.113-.165.22-.25.328-.074.093-.144.188-.22.28-.063.079-.135.15-.204.223-.206.202.02-.032-.123.124-.655.702-1.762-.127-1.108-.83.05-.043.085-.095.135-.139.004-.003-.006.008-.009.012.066-.07.122-.12.155-.166.029-.02 0 0 .054-.07.045-.058.09-.117.137-.174.08-.105.166-.207.239-.315.105-.138.221-.267.345-.391.105-.108.217-.21.316-.322.128-.139.262-.273.401-.404.149-.154.303-.305.46-.453.155-.163.318-.32.478-.479.195-.187.397-.368.603-.546.769-.603 1.72.37.951.973z" transform="translate(-918 -2287) translate(918 2287) translate(0 14) rotate(3.773 -354.482 397.302)"/>
                    </g>
                    <g fill="#DD4814" fill-rule="nonzero">
                        <path d="M1.317.433c.207.183.416.364.629.54.283.252.576.492.859.744.216.196.442.383.669.567.162.133.329.262.496.388.137.12.287.222.43.333.109.091.13.104.191.147.07.036.147.106.234.162l.013.01c.85.607-.004 1.815-.854 1.208l-.04-.03c-.019-.013-.038-.025-.054-.04-.01-.01.044.029.033.021-.059-.04-.059-.04-.146-.095-.097-.067-.191-.14-.284-.215-.13-.112-.283-.198-.409-.316-.181-.137-.36-.276-.537-.42-.243-.199-.486-.399-.719-.61-.27-.24-.55-.47-.82-.71C.759 1.91.513 1.7.275 1.48-.46.74.581-.309 1.317.433z" transform="translate(-918 -2287) translate(918 2287) translate(0 14) rotate(3.773 -548.171 445.614)"/>
                        <path d="M4.73 1.24c-.166.15-.336.298-.497.454-.146.146-.296.29-.439.44-.156.15-.313.3-.463.457-.13.124-.259.25-.38.38-.105.123-.229.231-.34.348-.086.087-.169.174-.241.27-.077.113-.165.22-.25.328-.074.093-.144.188-.22.28-.063.079-.135.15-.204.223-.206.202.02-.032-.123.124-.655.702-1.762-.127-1.108-.83.05-.043.085-.095.135-.139.004-.003-.006.008-.009.012.066-.07.122-.12.155-.166.029-.02 0 0 .054-.07.045-.058.09-.117.137-.174.08-.105.166-.207.239-.315.105-.138.221-.267.345-.391.105-.108.217-.21.316-.322.128-.139.262-.273.401-.404.149-.154.303-.305.46-.453.155-.163.318-.32.478-.479.195-.187.397-.368.603-.546.769-.603 1.72.37.951.973z" transform="translate(-918 -2287) translate(918 2287) translate(0 14) rotate(3.773 -548.171 445.614)"/>
                    </g>
                </g>
            </g>
        </g>
    </g>
</svg>
