<svg xmlns="http://www.w3.org/2000/svg" width="125" height="74" viewBox="0 0 125 74">
    <g fill="none" fill-rule="evenodd">
        <g>
            <g>
                <path fill="#9BDEDF" d="M82 74c23.748 0 43-13.252 43-37 0-23.748-19.252-37-43-37S39 13.252 39 37c0 23.748 19.252 37 43 37z" transform="translate(-558 -1977) translate(558 1977)"/>
                <g>
                    <path fill="#F9C526" d="M13.48 3.015c-.868.066-1.725.293-2.498.688-.604.305-1.15.718-1.646 1.18-.839.782-1.461 1.793-1.762 2.9-.088.384-.16.779-.142 1.174.047.647.346 1.232.647 1.796.933 1.717 1.939 3.387 2.91 5.085-.755.365-1.534.665-2.3 1.005-1.611.694-3.222 1.384-4.82 2.094-.821.373-1.66.7-2.45 1.133-.485.263-.873.681-1.137 1.165-.144.247-.263.515-.276.803-.03.455.054.91.138 1.359.39 1.818 1.006 3.583 1.6 5.35.687 2.04 1.454 4.056 2.196 6.084.815 2.209 1.605 4.429 2.408 6.642.557 1.515 1.107 3.029 1.682 4.536.617 1.526 1.269 3.035 1.959 4.53.299.611.616 1.215 1.065 1.73.48.496 1.18.712 1.856.73.726.017 1.408-.251 2.084-.48 1.203-.436 2.371-.944 3.551-1.435 1.826-.784 3.653-1.568 5.473-2.351.138.017.204-.192.09-.264-.935-1.28-1.88-2.555-2.808-3.848-.414-.599-.832-1.19-1.24-1.789-.305-.49-.587-1.017-.688-1.592-.085-.599.06-1.196.257-1.758.383-1.054 1.12-1.964 2.048-2.586.796-.556 1.706-.922 2.63-1.221.687-.22 1.41-.358 2.136-.323.682.024 1.36.191 1.976.473.527.227 1.048.503 1.48.88.418.424.562 1.023.7 1.585.257 1.042.39 2.112.556 3.173.18 1.231.348 2.458.563 3.685.037.12.024.305.168.353.126.042.233-.06.353-.083 1.096-.395 2.186-.803 3.27-1.233 1.701-.665 3.407-1.318 5.095-2.018.593-.257 1.186-.52 1.743-.848.461-.282.91-.629 1.185-1.102.27-.515.276-1.13.168-1.688-.137-.807-.449-1.573-.718-2.34-.581-1.573-1.228-3.123-1.845-4.684-.49-1.258-.988-2.52-1.425-3.8.072-.174.294-.144.449-.174 1.755-.245 3.509-.485 5.252-.778.671-.113 1.335-.251 1.994-.424.353-.103.73-.204 1.012-.455.342-.282.61-.634.867-.982.27-.395.48-.844.54-1.322.161-.863.24-1.754.107-2.627-.16-.797-.509-1.544-.849-2.274-.372-.749-.815-1.478-1.473-1.999-.534-.455-1.15-.813-1.803-1.06-.682-.227-1.42-.292-2.126-.155-.311.072-.616.192-.88.371-.659.42-1.263.922-1.891 1.377-1.385 1.047-2.78 2.076-4.175 3.106-.257-.025-.377-.282-.48-.48-.448-.832-.855-1.68-1.25-2.537-1.024-2.178-2.03-4.356-3.054-6.529-.263-.46-.568-.939-1.048-1.196-.532-.34-1.15-.604-1.79-.562-.911.047-1.767.377-2.623.658-1.544.526-3.066 1.137-4.593 1.705-1.053.402-2.102.795-3.16 1.178-.246.079-.493.163-.744.24-.167-.102-.12-.328-.138-.495-.137-1.977-.262-3.951-.4-5.926-.073-.681-.163-1.388-.522-1.987-.33-.49-.867-.77-1.395-.998-.622-.258-1.293-.402-1.963-.377-.037.006-.066.006-.097.012z" transform="translate(-558 -1977) translate(558 1977) matrix(-1 0 0 1 84 11)"/>
                    <path fill="#EF6B30" d="M50.29.003c-.525.064-1.058.281-1.402.705-.38.37-.748.793-.907 1.31-.402 1.333-.654 2.704-.958 4.06-.368 1.693-.713 3.385-1.052 5.083-.118.658-.27 1.31-.293 1.98 0 .113.018.259.14.289.188.046.375-.006.562-.006 1.91-.101 3.823-.235 5.74-.29.842-.016 1.713-.04 2.525.231.41.158.766.435 1.03.787.567.717 1 1.545 1.227 2.426.293 1.064.281 2.198.094 3.28-.187 1.034-.549 2.05-1.122 2.931-.503.764-1.159 1.43-1.953 1.874-.344.194-.724.376-1.129.383-.573.03-1.128-.158-1.665-.346-1.117-.423-2.187-.959-3.275-1.452-1.162-.54-2.32-1.088-3.483-1.634-.081-.04-.188-.135-.274-.064-.1.11-.042.27-.077.406-.281 2.214-.543 4.436-.754 6.662-.11 1.017-.193 2.034-.245 3.057-.024.61-.036 1.221.034 1.826.058.418.205.823.45 1.164.31.47.725.894 1.234 1.128.609.276 1.263.4 1.906.558 1.45.336 2.899.647 4.361.94 1.503.3 3.016.583 4.524.876.153.047.117.24.088.358-.321 1.023-.701 2.028-1.082 3.027-.484 1.27-1.017 2.527-1.42 3.825-.18.588-.334 1.21-.245 1.828.134.764.52 1.457.964 2.074.538.687 1.309 1.169 2.14 1.416.87.276 1.806.382 2.713.246.642-.105 1.267-.323 1.806-.687.626-.423 1.18-.963 1.583-1.598.304-.489.469-1.047.54-1.617.15-1.068.11-2.155.104-3.237-.03-1.603-.052-3.209-.052-4.812.076-.123.221-.024.332-.03 1.573.16 3.145.335 4.718.523 1.322.154 2.642.336 3.97.494.508.04 1.017.111 1.532.105.35-.004.694-.117 1.016-.253.474-.182.981-.392 1.293-.821.443-.576.724-1.252 1.004-1.91.509-1.234.965-2.491 1.432-3.743.52-1.434 1.048-2.867 1.544-4.313.544-1.569 1.029-3.156 1.485-4.755.432-1.504.777-3.03 1.104-4.559.304-1.468.58-2.944.86-4.418.315-1.686.631-3.368.9-5.06.07-.611.216-1.234.1-1.845-.094-.394-.333-.73-.55-1.051-.35-.489-.766-.924-1.187-1.346-.123-.065-.263-.065-.392-.106-.7-.147-1.396-.27-2.092-.422C72.02 3.945 64.298 2.41 56.58.884 55.202.62 53.828.361 52.436.167c-.555-.071-1.11-.158-1.665-.164-.165-.006-.322 0-.48 0z" transform="translate(-558 -1977) translate(558 1977) matrix(-1 0 0 1 84 11)"/>
                    <path fill="#ED5816" d="M80.2 6c-.026.14-.043.283-.062.429-.333 1.982-.727 3.959-1.127 5.935-.351 1.727-.695 3.46-1.071 5.181-.418 1.797-.843 3.588-1.385 5.357-.572 1.871-1.182 3.738-1.864 5.576-.616 1.697-1.275 3.379-1.934 5.06-.584 1.472-1.15 2.944-1.785 4.393-.288.625-.578 1.263-.972 1.843.345.04.69.08 1.035.116.534.046 1.07.116 1.612.11.375-.006.733-.116 1.072-.256.504-.18 1.033-.387 1.36-.811.467-.563.762-1.229 1.058-1.877.536-1.218 1.015-2.459 1.508-3.693.547-1.414 1.101-2.828 1.625-4.254.572-1.548 1.088-3.118 1.563-4.69.455-1.483.819-2.989 1.164-4.503.32-1.45.608-2.903.905-4.353.332-1.663.664-3.32.946-4.996.075-.596.229-1.21.106-1.819-.1-.383-.351-.714-.578-1.033-.37-.48-.807-.91-1.25-1.326-.129-.064-.277-.064-.413-.106-.504-.098-1.01-.19-1.514-.283z" transform="translate(-558 -1977) translate(558 1977) matrix(-1 0 0 1 84 11)"/>
                    <path fill="#ECB819" d="M3.92 19c-.816.337-1.644.651-2.434 1.045-.507.256-.915.663-1.191 1.133-.151.237-.276.5-.29.779-.03.44.064.881.152 1.31.401 1.772 1.046 3.485 1.668 5.193.72 1.986 1.53 3.942 2.302 5.904.852 2.15 1.679 4.297 2.52 6.445.583 1.47 1.16 2.945 1.761 4.402.647 1.486 1.331 2.95 2.052 4.395.313.593.652 1.185 1.116 1.684.502.476 1.236.685 1.944.71.759.016 1.473-.25 2.181-.472.44-.146.867-.308 1.299-.464-.2-.331-.388-.663-.565-.999-.946-1.9-1.843-3.821-2.683-5.76-.796-1.91-1.549-3.844-2.314-5.766-1.103-2.816-2.189-5.638-3.304-8.449-1.01-2.571-2.07-5.138-3.017-7.734-.401-1.114-.815-2.235-1.19-3.356H3.92z" transform="translate(-558 -1977) translate(558 1977) matrix(-1 0 0 1 84 11)"/>
                </g>
            </g>
        </g>
    </g>
</svg>
