<svg xmlns="http://www.w3.org/2000/svg" width="219" height="372" viewBox="0 0 219 372">
    <g fill="none" fill-rule="evenodd">
        <g>
            <g transform="translate(-140 -1303) translate(140 1303)">
                <ellipse cx="105.5" cy="310" fill="#333" fill-rule="nonzero" opacity=".1" rx="99.5" ry="23"/>
                <g>
                    <path fill="#474747" d="M95.943 10.565c2.767 5.262.973 12.173 1.746 18.074.769 10.617 1.116 21.27 1.72 31.902-3.138.928-9.523 3.11-10.028-1.966 1.08-15.188 2.12-30.627 3.922-45.606.961-.695 1.451-2.055 2.64-2.404z"/>
                    <ellipse cx="93.962" cy="7.123" fill="#3897C0" fill-rule="nonzero" rx="7.555" ry="6.821" transform="scale(-1 1) rotate(2.222 0 -4838.368)"/>
                    <g fill="#6E96A8">
                        <path d="M27.029 19.704c-1.944.477-3.88.994-5.848 1.358-1.22.229-2.447.422-3.675.603-.398.127-.646.507-.756.892-.368.938-.734 1.902-1.383 2.689-.883 1.178-2.021 2.128-3.12 3.097-1.98 1.657-3.99 3.29-5.785 5.15-.819.837-1.59 1.726-2.248 2.696-.987 1.37-1.775 2.877-2.397 4.445-.594 1.512-1.042 3.083-1.32 4.683-.182 1.254-.289 2.523-.274 3.79.018 1.228.141 2.454.366 3.662.192 1.08.476 2.14.816 3.183.519 1.517 1.148 2.993 1.797 4.458 1.349 2.942 2.82 5.826 4.252 8.728.263.5.735.85 1.19 1.168.988.65 2.137.975 3.231 1.396l3.365 1.22c-1.18-2.37-2.415-4.71-3.657-7.048-1.152-2.172-2.327-4.332-3.457-6.516-.723-1.48-1.416-2.984-1.893-4.564-.462-1.554-.73-3.16-.897-4.769-.1-1.164-.097-2.336.012-3.499.192-2.068.678-4.111 1.45-6.04.703-1.762 1.64-3.44 2.86-4.898.788-.956 1.683-1.818 2.585-2.665.91-.837 1.875-1.61 2.85-2.37 1.814-1.389 3.65-2.749 5.443-4.166 1.457-1.155 2.891-2.343 4.226-3.638.76-.72 1.484-1.48 2.198-2.246.233-.143.543-.565.229-.774-.048-.03-.104-.037-.16-.025zM53.129.287C52 1.057 50.904 1.87 49.836 2.72c-1.057.868-2.11 1.743-3.138 2.645-.25.4.249.671.592.692.785.158 1.573.31 2.333.568.875.287 1.732.626 2.56 1.03 1.252.6 2.475 1.265 3.652 2.002 1.411.89 2.76 1.876 4.05 2.933 1.041.865 2.042 1.78 3.001 2.735 1.52 1.508 2.968 3.087 4.318 4.748.905 1.116 1.791 2.25 2.625 3.421.976 1.348 1.907 2.727 2.788 4.138 1.003 1.582 1.924 3.215 2.791 4.874 1.277 2.487 2.424 5.041 3.423 7.653.761 1.994 1.463 4.012 2.071 6.059.536 1.8 1.03 3.612 1.43 5.447.5 2.247.874 4.523 1.084 6.815.208 2.206.262 4.428.14 6.64-.049 1.097-.153 2.19-.292 3.28-.285 2.356-.8 4.675-1.246 7.004l-.874 4.398c.282.484.892.696 1.428.588l4.78-.553c.614-1.296 1.048-2.667 1.44-4.044.595-2.288 1.178-4.584 1.574-6.917.242-1.416.423-2.84.559-4.27.189-2.18.233-4.371.121-6.556-.097-1.78-.289-3.558-.598-5.314-.254-1.498-.627-2.973-1.045-4.432-.397-1.363-.864-2.704-1.383-4.024-.834-2.133-1.818-4.206-2.88-6.235-1.367-2.57-2.858-5.074-4.416-7.533-1.494-2.344-3.052-4.647-4.688-6.894-2.004-2.738-4.109-5.402-6.324-7.972-1.286-1.464-2.597-2.906-3.951-4.308-.758-.787-1.532-1.56-2.316-2.322-1.382-1.343-2.788-2.66-4.248-3.918-1.644-1.425-3.324-2.809-5.049-4.135-.322-.217-.61-.51-.954-.68l-.03-.006-.035.01z" transform="scale(-1 1) rotate(2.222 -5972.981 -3895.378)"/>
                    </g>
                    <path fill="#CCDAE0" d="M56.02 237.197l.737 23.36 86.315-7.118-3.371-23.433-83.68 7.191zM63.703 274.265c-19.514 1.06-33.967 18.503-33.23 35.174.55 2.254 1.97 4.03 3.865 5.318l51.03-1.714c7.5-7.187 7.364-19.226 1.522-27.313-5.334-6.572-13.882-11.435-23.187-11.465zM155.646 274.992c-1.174.005-2.352.044-3.502.297-6.605 1.178-12.763 4.302-17.947 8.51-3.885 3.14-7.295 7.017-9.294 11.632-1.5 3.555-1.442 7.751.23 11.235.551.647 1.28 1.129 1.979 1.607 1.874 1.21 3.968 2.02 6.043 2.812 6.164-.226 12.325-.518 18.49-.687 8.066-.198 16.134-.038 24.199.108.993-.05 2.023.207 2.989-.097.765-.377 1.152-1.2 1.607-1.877 1.545-2.618 2.22-5.675 2.32-8.69.158-4.862-1.222-9.778-3.947-13.815-2.218-3.208-5.43-5.582-8.82-7.437-4.391-2.357-9.365-3.582-14.347-3.598z"/>
                    <path fill="#333" d="M55.745 180.208c.6 18.996 1.197 37.99 1.796 56.986l83.686-7.19-8.197-57.264-77.285 7.468z"/>
                    <g>
                        <path fill="#6E96A8" d="M4.77 5.667c-.269.165-.371.524-.277.818.126.36.297.705.439 1.06.263.613.524 1.228.812 1.83.533 1.07 1.088 2.131 1.704 3.157.467.766.991 1.496 1.507 2.23.579.798 1.235 1.534 1.862 2.293.704.777 1.416 1.548 2.189 2.257.55.5 1.136.962 1.722 1.42 1.117.787 2.24 1.565 3.409 2.274.8.446 1.607.877 2.421 1.297 1.017.51 2.069.947 3.116 1.391.589.244 1.194.445 1.8.64 1.298.403 2.61.76 3.925 1.104 1.93.492 3.867.957 5.785 1.498 1.253.348 2.507.69 3.755 1.056 1.415.437 2.834.865 4.23 1.36 3.258 1.121 6.512 2.251 9.762 3.39 2.156.76 4.304 1.54 6.452 2.323l4.36 1.626c.25.19.688.094.796-.21.09-.294-.13-.587-.33-.781-.297-.264-.575-.548-.876-.808-.698-.644-1.42-1.26-2.145-1.873-.63-.507-1.275-.995-1.955-1.433-.79-.522-1.591-1.028-2.424-1.48-.894-.479-1.811-.916-2.72-1.368-.636-.294-1.262-.614-1.905-.892-1.457-.595-2.91-1.204-4.395-1.727-1.23-.455-2.459-.913-3.71-1.309-1.109-.353-2.217-.71-3.334-1.04-1.085-.286-2.172-.565-3.266-.82-2.222-.525-4.46-.978-6.69-1.469-1.483-.321-2.966-.65-4.446-.985-1.772-.484-3.53-1.015-5.29-1.538-.62-.206-1.234-.432-1.835-.688-.58-.276-1.167-.538-1.726-.853-.714-.42-1.442-.823-2.087-1.346-.71-.537-1.38-1.126-2.03-1.735-.422-.433-.857-.855-1.264-1.301-.395-.498-.759-1.022-1.06-1.583-.275-.488-.534-.989-.682-1.531-.153-.545-.257-1.103-.391-1.652-.114-.383-.122-.805-.332-1.153-.277-.442-.614-.848-.996-1.204-.463-.404-.936-.797-1.431-1.16-.599-.39-1.223-.746-1.887-1.012-.182-.064-.367-.102-.561-.073z" transform="scale(1 -1) rotate(1.505 7781.68 5039.116)"/>
                        <path fill="#333" d="M3.638 8.5c-.117.811-.29 1.614-.39 2.43-.255 1.806-.527 3.61-.854 5.406-.297 1.492-.562 2.99-.84 4.487-.354 2.268-.69 4.541-.911 6.827L.36 30.374c2.35-.078 4.7-.13 7.047-.28 1.305-.061 2.603-.207 3.9-.355.913-.128 1.829-.262 2.721-.5.63-.194 1.243-.452 1.792-.821.581-.375 1.163-.751 1.69-1.202.59-.506 1.121-1.08 1.603-1.69.559-.72 1.073-1.481 1.427-2.323.404-.905.689-1.859.922-2.82.14-.747.24-1.501.27-2.26.038-.571.001-1.145-.085-1.71-.116-.585-.227-1.172-.43-1.734-.215-.665-.522-1.296-.818-1.927-.414-.82-.845-1.636-1.39-2.378-.443-.603-.905-1.193-1.391-1.761-.649-.741-1.342-1.441-2.039-2.137-.574-.557-1.186-1.072-1.824-1.555-.875-.685-1.768-1.35-2.706-1.947C10.231 2.43 9.38 1.94 8.521 1.46c-.473-.254-.965-.482-1.48-.633C6.37.651 5.692.513 5.027.321c-.092-.01-.18-.06-.274-.028-.42 2.728-.709 5.475-1.116 8.206z" transform="scale(1 -1) rotate(1.505 7781.68 5039.116)"/>
                        <path fill="#CCDAE0" fill-rule="nonzero" d="M76.96 32.014c1.023.708 1.933 1.582 2.678 2.577.952 1.256 1.646 2.704 2.04 4.23.392 1.53.472 3.134.252 4.698-.219 1.492-.709 2.948-1.46 4.257-.799 1.393-1.872 2.63-3.15 3.604-1.246.97-2.691 1.676-4.214 2.09-1.25.326-2.553.473-3.843.388-1.459-.068-2.888-.454-4.228-1.025-.898-.411-1.74-.936-2.516-1.546-1.082-.857-2.008-1.914-2.732-3.09-.828-1.338-1.379-2.844-1.618-4.399-.233-1.463-.161-2.96.146-4.408.064-.285.153-.566.236-.847.55.742 1.27 1.35 2.1 1.776 1.38.706 2.97.858 4.424.424 1.453-.435 2.648-1.42 3.322-2.741 1.329-2.6.34-5.831-2.268-7.415.862-.306 1.754-.523 2.663-.623 1.402-.172 2.836-.07 4.207.261 1.064.258 2.089.668 3.039 1.208.317.179.624.372.923.58z" transform="scale(1 -1) rotate(1.505 7781.68 5039.116)"/>
                    </g>
                    <g>
                        <g>
                            <path fill="#CCDAE0" d="M19.41 107.744l119.064-2.267-4.085-90.927-112.883-2.668-2.095 95.862z" transform="scale(-1 1) rotate(4.505 -628.558 -2166.983) scale(-1 1) rotate(3.722 -85.457 -2403.226)"/>
                            <path fill="#333" fill-rule="nonzero" d="M45.136 69.443c-2.162.14-4.296 1.029-5.805 2.6-1.503 1.533-2.298 3.755-1.993 5.89.292 2.45 1.95 4.616 4.105 5.763 2.428 1.343 5.47 1.477 8.018.386 2.165-.92 3.957-2.811 4.523-5.119.51-1.934.114-4.06-.996-5.717-1.506-2.314-4.224-3.709-6.964-3.797-.296-.028-.591-.01-.888-.005zM110.289 69.96c-2.395.14-4.757 1.258-6.24 3.165-1.377 1.737-1.918 4.123-1.335 6.27.595 2.397 2.469 4.358 4.722 5.305 2.758 1.193 6.123.89 8.59-.842 1.738-1.208 2.98-3.143 3.228-5.256.284-2.246-.606-4.557-2.206-6.138-1.752-1.756-4.294-2.641-6.759-2.504z" transform="scale(-1 1) rotate(4.505 -628.558 -2166.983) scale(-1 1) rotate(3.722 -85.457 -2403.226)"/>
                            <path fill="#3897C0" fill-rule="nonzero" d="M13.42 60.43c-1.016.456-2.047.88-2.99 1.48-.893.482-1.695 1.112-2.509 1.712-.803.701-1.62 1.39-2.314 2.202-.711.722-1.287 1.561-1.887 2.373-.56.904-1.135 1.799-1.554 2.78-.463.897-.763 1.868-1.094 2.819-.265 1.027-.548 2.051-.655 3.11-.17.956-.171 1.93-.2 2.898.05 1.059.08 2.12.287 3.163.122 1 .427 1.968.693 2.937.364 1 .71 2.006 1.22 2.944.417.919.993 1.755 1.535 2.602.646.846 1.278 1.705 2.043 2.45.673.756 1.474 1.386 2.245 2.038.869.619 1.726 1.255 2.679 1.742.891.534 1.863.92 2.821 1.317l1.66.555V59.766c-.66.22-1.32.442-1.98.664zM140.823 97.149c1.017-.346 2.042-.67 3.003-1.158.944-.396 1.808-.956 2.684-1.48.868-.626 1.75-1.234 2.519-1.983.788-.662 1.453-1.454 2.138-2.217.648-.858 1.317-1.703 1.836-2.649.563-.865.96-1.824 1.39-2.758.368-1.011.76-2.016.981-3.072.287-.992.386-2.026.525-3.045.056-1.075.137-2.149.042-3.224-.023-.994-.219-1.976-.373-2.955-.25-1.019-.465-2.048-.87-3.02-.327-1.002-.817-1.94-1.28-2.884-.54-.898-1.052-1.816-1.72-2.628-.599-.862-1.347-1.604-2.065-2.363-.796-.715-1.58-1.446-2.475-2.037-.811-.623-1.722-1.1-2.61-1.602-.97-.446-1.934-.911-2.962-1.213-.411-.133-.98-.486-.789.22.01 13.356.014 26.712.028 40.068h-.002z" transform="scale(-1 1) rotate(4.505 -628.558 -2166.983) scale(-1 1) rotate(3.722 -85.457 -2403.226)"/>
                            <path fill="#ACC3CE" fill-rule="nonzero" d="M74.33.391c-1.71.186-3.432.284-5.121.623-1.206.185-2.402.418-3.581.731-1.126.247-2.233.561-3.322.935-1.106.324-2.18.732-3.24 1.184-1.051.389-2.053.888-3.047 1.403-1.327.611-2.528 1.45-3.779 2.198-1.085.85-2.248 1.609-3.225 2.588l-1.208 1.118 60.228.014c-1.012-.916-1.954-1.914-3.082-2.693-.795-.62-1.602-1.223-2.48-1.72-.885-.565-1.782-1.11-2.737-1.55-.982-.515-1.98-.996-3.02-1.384-1.03-.441-2.077-.835-3.152-1.15-1.09-.373-2.194-.692-3.32-.937-1.181-.313-2.378-.55-3.587-.734-1.31-.264-2.642-.384-3.971-.51C81.076.318 79.45.334 77.833.27c-1.168.037-2.336.079-3.504.119V.39z" transform="scale(-1 1) rotate(4.505 -628.558 -2166.983) scale(-1 1) rotate(3.722 -85.457 -2403.226)"/>
                        </g>
                        <path fill="#6E96A8" d="M55.294 112.37l.55 11.807 58.723-4.818-2.285-8.122-56.988 1.133z" transform="scale(-1 1) rotate(4.505 -628.558 -2166.983)"/>
                    </g>
                    <path fill="#3897C0" fill-rule="nonzero" d="M93.872 183.404c-.663 1.68-1.243 3.395-1.874 5.088-.789 2.149-1.56 4.305-2.365 6.448-.35.167-.778-.104-1.153-.117-3.647-.703-7.286-1.451-10.943-2.097-.622-.243-.315.31-.108.59 1.952 3.332 4.07 6.564 6.029 9.892.315.394-.325.643-.527.92-2.365 2.163-4.824 4.221-7.222 6.349-.464.428-.98.823-1.394 1.296.844.197 1.765.263 2.64.396 3.299.428 6.597.855 9.897 1.267.288 4.077.429 8.163.693 12.24-.025.69.512-.024.732-.205 2.68-2.53 5.295-5.13 8.022-7.609.29-.443.647-.338.99-.018 3.148 2.159 6.216 4.435 9.35 6.617.453.466.487-.044.399-.447-.321-3.522-.66-7.044-1.081-10.556-.095-.247-.02-1.102-.261-.954-1.305 1.402-2.654 2.842-4.375 3.732-.292.112-.833.41-1.004.031-1.075-1.88-1.903-3.89-2.718-5.894-.16-.405-.316-.816-.355-1.254.93-.773 1.88-1.725 2.016-2.988.25-1.794-1.175-3.634-2.993-3.796-1.257-.17-2.648.366-3.269 1.516-.683 1.033-.737 2.443-.07 3.499.483.806 1.234 1.404 2.038 1.87.218.296-.123.743-.145 1.094-.545 1.984-1.099 3.97-1.788 5.91-.1.343-.362.746-.778.58-3.2-1.017-5.8-3.58-7.083-6.655-.757-1.791-1.192-3.76-.947-5.708.23-1.962.857-3.913 1.994-5.542 1.212-1.622 2.703-3.125 4.597-3.926 2.09-.901 4.438-1.215 6.692-.894 2.96.44 5.654 2.152 7.478 4.497 1.878 2.427 2.746 5.581 2.441 8.629-.104 1.63-.768 3.137-1.343 4.642-.286.54.515.109.761.103 3.56-.879 7.123-1.75 10.648-2.756.635-.044.176-.431-.143-.613-2.872-1.994-5.852-3.828-8.78-5.739l-1.216-.784c1.548-3.664 3.164-7.3 4.605-11.009.304-.559-.093-.55-.514-.33-3.757 1.208-7.511 2.428-11.282 3.594-2.06-3.576-3.975-7.235-6.085-10.782-.05-.043-.11-.238-.206-.13v.003z"/>
                    <path fill="#6E96A8" d="M38.673 197.295c-1.993 1.308-3.982 2.622-5.976 3.927l-4.972 3.03-16.989 7.7-3.417 2.075-2.197 1.916c-.342.4-.712.779-1 1.22-.24.3-.44.626-.645.95-.232.362-.466.722-.663 1.104-.319.568-.556 1.176-.829 1.767-.253.651-.549 1.288-.732 1.965-.115.388-.225.78-.33 1.171-.097.62-.16 1.244-.218 1.868-.013.496-.025.994.025 1.489.05.689.087 1.379.142 2.067.068.573.144 1.145.224 1.716.158.556.324 1.11.536 1.648.21.398.343.833.575 1.22.234.426.488.841.72 1.27.27.455.616.858.946 1.27.288.327.564.665.888.96.567.554 1.191 1.047 1.795 1.56.519.433 1.046.857 1.594 1.252.356.248.717.49 1.106.683.43.237.869.456 1.31.67.369.2.732.411 1.123.566.374.188.793.254 1.192.377.82.235 1.65.433 2.482.619.708.037 1.416.12 2.126.087.392-.031.781-.1 1.171-.154.4-.063.804-.107 1.186-.244.483-.166.974-.317 1.435-.54.33-.168.666-.336.956-.57.281-.238.584-.47.788-.78.186-.29.34-.608.428-.94.074-.368.066-.757-.065-1.111-.112-.32-.24-.72-.596-.835-.322-.098-.646.032-.969.057-.662.09-1.321.2-1.985.278-.602.057-1.203.139-1.808.15-.478-.004-.953-.063-1.423-.145-.494-.076-.994-.125-1.48-.244-.403-.086-.798-.2-1.176-.365-.363-.15-.744-.253-1.101-.413-.368-.137-.684-.37-1.035-.54-.363-.172-.649-.456-.977-.68-.567-.427-1.096-.902-1.639-1.358-.292-.302-.582-.604-.834-.94-.34-.425-.672-.855-1.009-1.282-.304-.506-.637-.997-.878-1.537-.207-.387-.344-.805-.513-1.209-.154-.369-.252-.756-.337-1.146-.098-.458-.234-.91-.263-1.378-.068-.514-.025-1.034-.056-1.55.044-.38.013-.767.091-1.143.105-.686.268-1.366.533-2.008.181-.378.3-.784.496-1.155.256-.402.466-.837.795-1.188.282-.334.561-.672.866-.985.412-.387.84-.76 1.308-1.076.534-.341 1.05-.714 1.621-.993.682-.365 1.37-.718 2.063-1.06.582-.302 1.162-.606 1.76-.878 2.452-1.16 4.903-2.323 7.357-3.48 2.509-1.12 5.012-2.253 7.518-3.379 1.417-.88 2.839-1.753 4.253-2.637l1.19-.817c.699-.643 1.379-1.306 2.038-1.99.262-.31.546-.606.754-.96.197-.351.425-.693.568-1.07.158-.464.28-.94.363-1.423.031-.379.044-.76-.006-1.137-.05-.435-.103-.87-.153-1.304l-.051.012z"/>
                    <path fill="#3897C0" fill-rule="nonzero" d="M22.492 226.387c-1.146-.025-2.294.088-3.403.384-1.5.396-2.923 1.084-4.156 2.027-1.309.987-2.41 2.246-3.224 3.667-.83 1.43-1.347 3.03-1.564 4.666-.239 1.882-.038 3.818.574 5.615.524 1.532 1.35 2.961 2.43 4.17 1.054 1.179 2.336 2.157 3.769 2.832 1.437.69 3.02 1.06 4.612 1.127 1.45.032 2.908-.18 4.272-.679 1.338-.463 2.588-1.182 3.671-2.092 1.24-1.04 2.276-2.325 3.017-3.762.864-1.663 1.345-3.521 1.41-5.393.03-1.523-.185-3.053-.692-4.493-.525-1.51-1.346-2.915-2.408-4.112-1.052-1.178-2.335-2.154-3.766-2.829-1.393-.67-2.924-1.034-4.466-1.122l-.07-.005-.006-.001z"/>
                    <path fill="#333" d="M54.305 179.912c-.398.115-.813.177-1.218.27-1.486.336-2.964.703-4.448 1.051-1.015.248-2.036.471-3.047.735-1.222.34-2.43.731-3.631 1.138-.87.326-1.732.675-2.562 1.093-.738.364-1.38.884-2.045 1.362-.57.47-1.06 1.024-1.539 1.584-.51.73-1.065 1.44-1.423 2.26-.195.415-.402.825-.542 1.264-.216.652-.36 1.326-.478 2.003-.117.642-.173 1.296-.147 1.949.012.776.097 1.55.21 2.318.18.934.415 1.857.719 2.759.196.618.493 1.199.726 1.804.198.463.468.89.68 1.348.447.8.954 1.564 1.512 2.29.888 1.21 1.968 2.274 3.15 3.198.473.342.95.683 1.458.97.306.162.687.149.979-.038.365-.205.647-.528.926-.835.542-.649 1.08-1.301 1.593-1.972.791-1.1 1.549-2.227 2.185-3.424.387-.712.751-1.438 1.103-2.168.525-1.155.99-2.338 1.411-3.535.374-1.105.74-2.214 1.06-3.336.25-.866.487-1.736.688-2.614.82-3.44 1.586-6.893 2.456-10.321.085-.38.204-.762.279-1.139l-.013-.012-.042-.002z"/>
                    <path fill="#E7E5E2" fill-rule="nonzero" d="M52.88 178.336l-1.237 2.116c-4.376 7.494-9.925 13.69-15.972 17.832-2.415 1.654-4.359 2.636-7.174 3.623-5.26 1.844-11.804 2.608-19.078 2.235l-3.4-1.24.258 1.076c-.012.001-.087-.002-.089 0 0 0 .093.037.098.037l.167.695c1.49 6.227 17.332 62.555 18.124 64.44 2.033 4.84 5.818 9.097 11.927 13.417 6.725 4.757 21.39 12.403 31.63 16.49 9.289 3.708 16.64 5.307 20.535 4.465 1.227-.265 1.442-.347 2.439-.917 5.507-3.151 12.774-11.888 21.066-25.327 2.087-3.382 5.822-9.85 7.112-12.313 5.095-9.733 7-16.337 6.615-22.936l-.074-1.263-5.423-18.873c-5.24-18.236-13.57-46.39-13.97-47.216l-.196-.404-.804 1.087c-.208.149-.39.277-.633.457-7.622 5.656-15.522 9.21-22.178 9.98-8.06.934-18.683-1.543-27.986-6.522l-1.757-.94z"/>
                    <path fill="#3897C0" d="M57.625 193.022l-.964 1.65c-3.41 5.84-7.736 10.669-12.449 13.897-1.882 1.29-3.396 2.054-5.59 2.824-4.1 1.437-9.2 2.032-14.87 1.742l-2.649-.967.2.84c-.006 0-.067-.003-.069-.001 0 0 .073.025.076.031l.13.542c1.161 4.853 13.509 48.754 14.125 50.222 1.585 3.773 4.535 7.09 9.296 10.458 5.242 3.707 16.671 9.666 24.652 12.852 7.24 2.89 12.97 4.136 16.005 3.48.956-.207 1.123-.271 1.9-.715 4.292-2.456 9.956-9.265 16.419-19.74 1.626-2.636 4.537-7.676 5.542-9.596 3.972-7.585 5.457-12.733 5.156-17.876l-.056-.984-4.227-14.71c-4.084-14.212-10.576-36.154-10.887-36.798l-.153-.314-.627.846c-.162.117-.304.216-.493.357-5.94 4.408-12.097 7.178-17.285 7.779-6.282.727-14.561-1.203-21.811-5.084l-1.371-.735z"/>
                    <path fill="#333" fill-rule="nonzero" d="M115.078 205.12l-64.486.695h64.69l-.204-.694zm.361 1.241c-.249 42.7-29.118 77.188-64.702 77.296-5.855-.012-11.682-.976-17.321-2.864.865.694 1.765 1.388 2.748 2.083 6.725 4.756 21.393 12.4 31.633 16.488 9.289 3.708 16.639 5.308 20.534 4.465 1.226-.264 1.441-.346 2.438-.917 5.507-3.15 12.775-11.887 21.067-25.326 2.087-3.382 5.82-9.848 7.11-12.313 5.096-9.732 7.003-16.337 6.617-22.936l-.074-1.263-5.425-18.874c-1.377-4.792-3.02-10.353-4.625-15.839z" opacity=".1"/>
                    <path fill="#FFF" fill-rule="nonzero" d="M106.874 174.661l-.807 1.085c-.208.15-.387.279-.63.459-7.622 5.656-15.525 9.21-22.18 9.981-8.06.933-18.682-1.543-27.985-6.523l-1.756-.94-1.237 2.116c-4.376 7.493-9.924 13.689-15.971 17.831-2.415 1.654-4.36 2.636-7.176 3.623-5.259 1.844-11.804 2.607-19.077 2.235l-3.4-1.24.257 1.078c-.012 0-.089-.005-.09-.003 0 0 .093.037.097.037l.168.695c1.007 4.21 8.398 30.656 13.44 48.36 13.554-31.245 46.742-56.238 89.821-67.645-1.74-5.828-3.133-10.443-3.28-10.746l-.194-.403z" opacity=".1"/>
                    <path fill="#FFF" fill-rule="nonzero" d="M64.771 211.948c-.003 0-.005 0-.012.003-.07.117-.456 2.557-1.48 9.32-.887 5.865-.993 6.522-1.116 6.878-.003.005-3.28.043-7.284.073-7.86.065-9.13.082-9.185.118-.044.025.116.2 4.246 4.643 5.392 5.803 6.838 7.392 6.825 7.5-.012.13-1.703 2.347-4.735 6.22-3.228 4.122-5.211 6.753-5.126 6.802.031.012 6.739-.478 13.719-1.014 1.41-.108 2.576-.19 2.588-.183.012.005.347 1.366.744 3.02 1.409 5.875 2.527 10.563 2.82 11.826.29 1.244.3 1.277.366 1.19.037-.05.407-.59.823-1.205 1.025-1.516 2.204-3.243 3.68-5.39 3.059-4.446 4.776-6.9 4.842-6.917.093-.025 4.181 1.87 12.772 5.916l2.07.975-.056-.335c-.089-.545-.623-2.343-2.749-9.22-.721-2.335-1.432-4.654-1.58-5.153l-.269-.908-.318.644c-1.074 2.168-2.337 3.845-3.957 5.255-.608.527-1.118.876-1.334.91-.128.019-.178-.012-.364-.212-.8-.869-5.05-7.023-5.665-8.2-.037-.066-.062-.123-.074-.175 1.863-1.026 2.795-3.182 2.266-5.242-.308-1.197-1.08-2.223-2.144-2.851-1.064-.629-2.335-.809-3.532-.5-.132.036-.262.077-.39.125-.117.037-.231.084-.344.132l-.038.019c-.134.056-.264.126-.39.2l-.012.012c-.092.057-.18.112-.267.173-1.633 1.102-2.396 3.112-1.906 5.02.512 1.986 2.262 3.404 4.311 3.493.002.003.004.012.013.012.117.454-.564 7.768-.91 9.788-.102.59-.148.695-.326.74-.323.084-1.52-.101-2.537-.39-1.317-.374-2.422-.85-3.621-1.56-1.604-.95-2.775-1.947-4.034-3.434-1.077-1.271-1.92-2.667-2.588-4.284-.28-.677-.785-2.48-.905-3.225-.301-1.89-.266-3.775.108-5.707.318-1.637.92-3.187 1.853-4.763 1.907-3.225 4.423-5.325 7.82-6.527.867-.307 2.808-.758 3.6-.836 3.018-.298 5.656.244 8.5 1.748 2.728 1.442 4.83 3.546 6.395 6.403.631 1.15.665 1.245 1.197 3.304.326 1.262.502 2.024.544 2.358.166 1.278.15 2.71-.043 3.922-.05.301-.218 1.132-.378 1.845-.16.712-.282 1.327-.272 1.366.025.085-.183.175 1.959-.866 4.885-2.376 12.293-6.037 12.45-6.155.102-.075-.95-.507-7.423-3.042-6.168-2.417-7.748-3.06-7.776-3.17-.013-.043.759-3.663 1.71-8.053.95-4.39 1.703-7.975 1.672-7.967-.087.025-2.27 1.263-6.403 3.637-5.552 3.19-7.741 4.41-7.89 4.392-.139-.018-1.959-2.176-5.24-6.222-3.931-4.85-5.104-6.26-5.217-6.269l-.003-.007z"/>
                    <path fill="#724E12" fill-rule="nonzero" d="M199.05 27.07H207.638V371.89799999999997H199.05z" transform="rotate(-3.783 203.344 199.484)"/>
                    <g>
                        <path fill="#ACD5E7" d="M11.944.488s-7.62 13.775-9.95 36.687C.282 54.01.75 91.84.75 91.84l24.627.367s-.746-40.723-3.234-57.6C19.656 17.731 11.944.487 11.944.487z" transform="rotate(-2.822 176.316 -3632.574)"/>
                        <path fill="#019EC3" d="M12.834 28.003s-1.4 9.698-1.829 25.829c-.314 11.851-.228 38.483-.228 38.483l4.525.259s-.137-28.67-.594-40.55c-.457-11.881-1.874-24.02-1.874-24.02z" transform="rotate(-2.822 176.316 -3632.574)"/>
                    </g>
                </g>
            </g>
        </g>
    </g>
</svg>
