<svg xmlns="http://www.w3.org/2000/svg" width="430" height="387" viewBox="0 0 430 387">
    <g fill="none" fill-rule="evenodd">
        <g>
            <g>
                <path fill="#FFF" fill-rule="nonzero" d="M253.048 335.2c80.854-46.64 108.557-149.937 61.876-230.72C268.243 23.696 164.854-3.984 84 42.656L253.048 335.2z" opacity=".202" style="mix-blend-mode:overlay" transform="translate(-78 -254) translate(78 254)"/>
                <g fill="#A3D1E4">
                    <path d="M106.35.868c5.389.355 11.086 1.139 17.114 2.378l.005 53.467 12.904 13.001 12.905 13v75.216l-2.39 1.219c-6.78 3.462-4.956 13.417 2.615 14.272 2.26.255 3.16.046 4.863-1.12 2.644-1.809 3.553-3.998 3.15-7.578-.245-2.175-.748-3.208-2.187-4.495-1.028-.92-2.27-1.674-2.76-1.674-.748 0-.88-4.485-.89-34.653V81.432l-12.905-13.005-12.905-13.007.005-51.657c4.523 1.006 9.229 2.264 14.126 3.785 3.14.974 6.223 1.938 9.251 2.893l-.006 20.433-2.399 1.107c-7.172 3.312-4.618 14.215 3.33 14.215 4.295 0 7.505-3.254 7.5-7.604-.01-2.948-1.733-5.795-4.127-6.788l-1.873-.776.001-19.82c7.98 2.531 15.569 5.006 22.775 7.473-.066 10.318-.273 12.493-.82 12.493-1.554 0-4.514 3.056-5.208 5.375-1.413 4.723 1.547 9.039 6.493 9.466 5.262.453 9.14-3.69 8.272-8.836-.405-2.397-2.663-4.985-4.952-5.677l-1.35-.41V19.52c8.094 2.803 15.694 5.601 22.814 8.465-.006.936-.007 1.885-.007 2.845v25.292L187.09 68.728l-12.602 12.607V209.94l12.602 12.608 12.604 12.607v28.671c-.01 19.84-.135 22.11-.958 22.11-.528 0-1.88.92-3.002 2.044-1.788 1.79-2.04 2.422-2.04 5.116 0 2.633.279 3.377 1.95 5.189 1.559 1.69 3.377 2.449 5.152 2.514 5.327.196 10.271-5.858 6.67-11.771-.676-1.11-2.026-2.317-3-2.685-.974-.368-1.779-.813-1.789-.988-.01-.175-.075-11.81-.15-25.855l-.132-25.537-12.755-12.618-12.753-12.618V82.582l12.83-12.936 12.832-12.937-.076-25.826-.006-1.773c8.358 3.444 16.029 6.992 23.038 10.764l-.002 67.909 25.439 25.537 25.438 25.535-.077 12.3c-.076 11.666-.142 12.33-1.286 12.918-3.867 1.99-5.097 3.838-5.097 7.663 0 3.96 2.373 6.534 6.376 6.919 1.643.158 2.92.063 4.025-.31-1.505 7.425-3.388 14.642-5.641 21.613-.089.031-.174.067-.259.106-3.222 1.46-4.2 3.116-4.2 7.101 0 2.035.065 2.985.522 3.764-6.079 15.394-14.096 29.38-23.968 41.5-.242.246-.463.517-.666.807-5.502 6.658-11.574 12.74-18.198 18.17l-.003-5.44 1.652-.855c2.248-1.164 3.684-2.852 4.325-5.09 1.827-6.379-5.681-12.017-11.172-8.52l-.183.12c-5.236 3.564-4.296 11.486 1.632 13.766l1.35.52.002 7.416c-19.924 15.551-44.646 25.355-73.824 27.417l-.002-9.279 25.208-25.214v-13.073c0-10.908.14-13.074.853-13.074.47 0 1.68-.697 2.69-1.548 5.569-4.69 2.476-13.473-4.744-13.473-2.237 0-3.326.35-4.715 1.52-2.153 1.814-3.333 5.001-2.783 7.51.519 2.364 2.896 5.158 4.795 5.635l1.504.378v24.925l-12.605 12.607-12.604 12.607.003 10.63c-3.05.17-6.146.257-9.29.257-4.795 0-9.501-.196-14.113-.58l.002-8.684 12.898-12.917 12.9-12.916.001-42.415c.01-30.13.143-34.61.89-34.61.49 0 1.732-.752 2.76-1.671 2.425-2.169 3.086-6.48 1.46-9.503-1.693-3.148-6.207-4.683-9.614-3.272-4.113 1.703-5.764 7.622-3.191 11.442.84 1.246 2.206 2.339 3.355 2.68l1.939.574v75.497l-12.905 12.97-12.905 12.971v9.635c-7.929-.779-15.57-2.119-22.894-3.983l.092-30.901 1.365-.343c.75-.189 2.108-1.121 3.017-2.072 3.158-3.3 1.943-9.784-2.202-11.753-2.49-1.183-4.254-1.211-6.791-.106-5.566 2.423-5.714 10.724-.24 13.52l2.444 1.249-.001 29.796c-6.64-1.806-13.013-4.048-19.095-6.697 1.414-1.242 2.295-3.217 2.295-5.37 0-3.26-1.513-5.663-4.39-6.97-2.913-1.324-3.04-1.334-5.793-.385-2.881.993-4.512 3.63-4.76 6.396-5.98-3.401-11.617-7.237-16.884-11.47l.004-5.353 1.35-.529c4.641-1.815 6.559-7.202 4.036-11.344-2.008-3.298-6.206-4.493-9.993-2.843-2.348 1.022-3.812 3.166-4.203 6.16-.368 2.812 1.58 6.045 4.45 7.384l1.932.9v3.625c-8.706-7.363-16.343-15.848-22.78-25.29l.004-3.58 12.604-12.607 12.605-12.607V82.304l2.065-.982c3.78-1.796 5.386-6.093 3.745-10.023-1.686-4.04-6.688-5.751-10.566-3.612-2.22 1.224-4.249 4.385-4.249 6.62 0 2.835 2.358 6.133 5.252 7.344l1.352.566v151.756L34.644 246.58l-12.605 12.607-.004 1.13C3.652 231.273-3.794 193.806 3.2 152.346l-.4 2.482 8.43-8.405.923-.923c6.505-6.52 11.681-12.056 11.681-12.513 0-2.245-2.84.057-14.764 11.975l-5.561 5.557c5.01-29.567 10.383-57.769 18.53-81.57v38.402l-1.433.36c-.789.198-2.275 1.319-3.302 2.49-4.271 4.87-.878 12.302 5.616 12.302 2.537 0 4.265-.79 6.171-2.826 1.032-1.101 1.35-2.158 1.35-4.473 0-3.543-1.428-5.971-4.186-7.115l-1.815-.754-.001-45.05c5.939-15.666 13.279-29.144 22.789-39.467-.048 6.845-.246 8.355-.84 8.355-1.553 0-4.516 3.056-5.21 5.375-1.424 4.757 1.536 9.016 6.602 9.503.6.058 1.108.089 1.557.086 1.345-.009 2.15-.321 3.273-1.12 2.215-1.58 3.635-4.126 3.635-6.517 0-2.33-2.262-5.616-4.633-6.728l-1.924-.9-.138-10.468c6.572-6.539 14.135-11.642 22.915-15.023l-.002 12.604v17.932c-.003 25.96-.01 45.238-.01 45.576 0 .413-.403.752-.893.752s-1.733.752-2.76 1.671c-3.746 3.35-2.867 10.31 1.567 12.417 2.632 1.25 4.985 1.174 7.302-.24 3.013-1.84 3.982-3.771 3.646-7.268-.317-3.306-1.956-5.62-4.419-6.24l-1.444-.362-.004-77.908C80.672 2.589 86.31 1.446 92.405.941c.644 1.53 1.808 2.846 3.496 3.624l2.327 1.072.031 100.954-12.604 12.607c-11.414 11.417-14.074 14.721-11.85 14.721.416 0 6.63-5.883 13.807-13.074l13.048-13.073V5.467l1.363-.343c1.815-.456 3.422-2.03 4.278-4.117zM73.952 297.963c.66-.003 2.038.507 3.063 1.132 3.628 2.215 2.934 6.994-.256 8.882-2.903-1.33-5.736-2.756-8.498-4.272l-.003.153c.02-3.113 2.69-5.878 5.694-5.895zm129.958-9.315c3.149 1.63 3.379 6.92.39 9.015-.852.598-1.755.903-2.64.975-3.84.308-7.378-3.806-5.315-7.8 1.62-3.136 4.261-3.9 7.565-2.19zm-80.168-54.235c-.158.413-.216 12.24-.13 26.28.145 23.64.232 25.542 1.192 25.727.061.011.119.016.173.009.806-.114.886-2.93 1.029-24.635.09-13.655.079-25.57-.027-26.479-.194-1.692-1.701-2.3-2.237-.902zm106.81 40.154c2.105 2.504 2.036 4.97-.201 7.21-1.133 1.134-2.433 1.728-3.732 1.777-1.3.05-2.598-.446-3.729-1.494-1.751-1.625-2.117-4.521-.905-7.184.75-1.649 1.525-1.985 4.815-2.09 1.763-.055 2.505.297 3.752 1.78zm-178.179-.26c2.095 2.264 1.984 5.201-.282 7.47-1.198 1.198-2.357 1.755-3.649 1.755-1.292 0-2.449-.557-3.646-1.755-1.866-1.868-2.204-3.812-1.087-6.266 1.41-3.096 6.286-3.772 8.664-1.203zm50.935.26c2.105 2.504 2.036 4.97-.2 7.21-1.263 1.263-2.67 1.84-4.098 1.718-.857-.074-1.722-.4-2.568-.98-2.078-1.423-2.364-1.974-2.375-4.568-.02-4.945 6.057-7.168 9.241-3.38zm20.56-167.885c-.218.218-.396 22.812-.4 50.387v51.663l-25.454 25.475c-23.47 23.491-26.681 27.094-24.146 27.094.378 0 12.259-11.585 26.399-25.743l25.708-25.742-.066-51.247c-.036-28.185-.212-51.481-.389-51.768-.384-.622-1.1-.673-1.652-.12zm128.556 62.095c-1.436.005-3.261.344-4.055.752-2.421 1.246-3.858 3.736-3.858 6.682 0 3.257 1.35 5.487 4.125 6.812l2.068.986.154 38.489c.145 36.106.219 38.498 1.204 38.688.062.01.122.016.177.002.79-.205.869-3.941.874-34.62v-6.932c.007-31.026.138-35.846.879-35.846.484 0 1.825-.832 2.981-1.848 3.598-3.162 3.625-7.604.067-11.166-1.663-1.665-2.45-2.006-4.616-1.999zm-72.687 80.24c2.378 2.705 1.603 6.694-1.626 8.366-.893.462-1.828.648-2.73.603-2.703-.132-5.097-2.333-5.097-5.344 0-5.15 6.067-7.477 9.453-3.626zm43.628-105.124l-.271.141c-5.516 2.91-5.297 11.312.357 13.677l2.054.86v76.162l-1.35.348c-2.15.552-4.563 3.203-4.99 5.485-.57 3.034.133 5.079 2.522 7.334 1.462 1.38 3.149 2.03 4.794 2.08l.272.003.22-.006c3.723-.16 7.103-3.372 7.038-8.115-.04-2.852-1.536-5.143-4.179-6.397l-1.902-.902-.013-38.02-.015-38.018 1.351-.566c2.326-.974 3.537-2.245 4.327-4.546 1.396-4.064-.352-7.986-4.307-9.662-2.464-1.044-3.597-1.035-5.908.142zm3.742 92.974c1.18.192 2.647.802 3.26 1.358 1.408 1.275 1.995 4.295 1.228 6.316-.325.855-1.49 1.98-2.591 2.499-1.09.514-2.138.69-3.092.608-4.136-.356-6.498-5.579-2.78-9.3 1.562-1.565 2.139-1.78 3.975-1.481zm-153.962-79.04c-.598 1.175-.929 74.394-.346 76.716.269 1.074.878 1.596 1.435 1.475.335-.073.653-.377.866-.933.207-.54.342-18.232.303-39.316-.06-32.052-.207-38.385-.902-38.652-.457-.176-1.068.143-1.356.71zm-53.512 11.382c-3.079 1.177-4.857 5.843-3.69 9.684.637 2.098 3.708 4.897 5.371 4.897.529 0 .747 6.541.864 25.988.136 22.63.271 25.986 1.055 25.986.784 0 .922-3.348 1.058-25.915l.157-25.917 1.864-.774c4.932-2.046 5.54-10.262.994-13.45-1.306-.915-5.816-1.21-7.673-.5zm253.96 54.011c-.479 1.393-.972 2.775-1.481 4.147-.015-.79.14-1.633.505-2.506.232-.555.583-1.138.952-1.616zM96.159 143.855c-2.604 1.324-3.783 2.983-4.227 5.946-.556 3.708 1.213 6.607 4.978 8.165l1.35.56v25.85c0 25.451.02 25.853 1.2 25.853 1.182 0 1.2-.407 1.216-25.988l.015-25.986 2.33-1.074c3.082-1.421 4.568-4.794 3.638-8.254-.735-2.73-1.906-4.047-4.605-5.176-2.503-1.047-3.67-1.027-5.895.104zm58.009 54.152c2.115 2.254 1.927 5.915-.402 7.78-1.128.903-2.357 1.348-3.538 1.367-1.97.03-3.81-1.12-4.842-3.295-.82-1.732-.837-2.26-.121-3.973.935-2.24 1.973-3.241 3.713-3.586 2.025-.402 3.742.164 5.19 1.707zm45.168-105.719c-.692.128-2.144.973-3.227 1.877-3.911 3.27-2.853 10.793 1.79 12.718l1.795.745.074 36.278c.042 19.953.11 36.75.15 37.324.045.61-.67 1.4-1.72 1.903-3.302 1.584-4.506 3.586-4.506 7.482 0 1.996.386 3.16 1.489 4.471 1.398 1.663 4.503 2.89 6.767 2.797.324-.013.631-.054.913-.124 5.942-1.476 7.81-8.971 3.273-13.133-1.121-1.029-2.36-1.978-2.754-2.11-1.017-.339-.996-74.625.022-74.968.382-.128 1.62-1.083 2.754-2.122 3.685-3.38 3.184-9.902-.919-11.97-2.05-1.034-4.265-1.47-5.901-1.168zm81.932 95.186c.32.298.593.626.819.975-.37 2.416-.782 4.811-1.232 7.185-.243.188-.506.356-.789.502-.927.48-1.707.752-2.433.803-1.211.084-2.273-.447-3.625-1.656-1.554-1.39-1.919-2.162-1.868-3.956.137-4.835 5.602-7.142 9.128-3.853zm-80.124-2.481c1.876 0 2.863.354 3.764 1.35 3.408 3.77.882 9.473-4.192 9.462-2.108-.005-4.619-2.433-5.002-4.838-.277-1.737-.038-2.494 1.274-4.055 1.347-1.603 2.034-1.92 4.156-1.92zM227.908 41.19c8.635 4.817 16.224 10.012 22.81 15.819l-.002 50.777 25.507 25.535 8.376 8.383c.134 3.438.201 6.984.201 10.643 0 11.4-.771 22.535-2.295 33.3-.58-.52-1.258-.943-2.035-1.239l-1.546-.588v-26.034l-25.51-25.471-25.508-25.47zM25.64 171.572c1.694 1.002 2.995 3.073 2.995 4.767 0 1.772-1.791 4.327-3.433 4.895-.763.264-1.497.384-2.188.383-4.837-.01-7.555-5.935-3.265-9.55 2.078-1.75 3.558-1.875 5.89-.495zm226.675-.975c.717-.013 2.135.674 3.151 1.53 3.955 3.331 1.166 9.346-3.348 9.487-.645.02-1.325-.078-2.025-.322-2.892-1.01-4.427-5.015-2.969-7.743.75-1.402 3.417-2.92 5.19-2.952zm-102.258-10.215c.594-.013 1.837.37 2.765.85 4.97 2.573 3.002 9.94-2.657 9.94-2.571 0-3.623-.724-5.049-3.482-1.489-2.88 1.452-7.23 4.94-7.308zm-46.95-13.29c2.236 2.24 2.305 4.706.2 7.21-1.136 1.352-2.689 1.98-4.207 1.948-1.952-.042-3.847-1.173-4.72-3.252-2.375-5.656 4.397-10.24 8.726-5.906zm127.444.093c1.796 2.136 1.984 4.462.537 6.58-1.422 2.08-1.973 2.366-4.563 2.377-3.19.012-5.223-2.09-5.223-5.4 0-5.12 5.997-7.426 9.25-3.557zm22.568-87.988c7.722 7.265 13.962 15.482 18.797 25.078-2.153 2.549-2.743 7.074-.743 9.618 1.684 2.143 3.89 3.237 6.108 3.28 3.93 11.612 6.277 25.017 7.14 40.738l-5.798-5.794-25.507-25.53V61.64v-.956zM25.312 110.215c1.895.9 3.324 2.979 3.324 4.835 0 2.72-3.104 5.652-5.984 5.652-1.583 0-4.614-2.707-5.07-4.528-.53-2.113 1.182-5.486 3.153-6.209 2.208-.81 2.365-.8 4.577.25zm178.565-15.061c2.42 1.253 3.412 4.422 2.149 6.867-1.038 2.008-2.78 3.077-4.614 3.118-1.427.031-2.911-.56-4.166-1.816-1.862-1.864-2.175-3.505-1.082-5.644 1.64-3.209 4.55-4.162 7.713-2.525zM76.295 84.734c1.914.872 3.517 4.182 3.008 6.212-.613 2.446-3.138 3.926-5.63 3.845-1.133-.037-2.258-.398-3.196-1.137-2.022-1.592-2.567-4.2-1.364-6.526 1.536-2.975 4.062-3.818 7.182-2.395zm196.62 1.584c1.279 2.701 2.452 5.51 3.52 8.434-.95-.18-1.873-.598-2.663-1.279-1.296-1.115-1.617-1.912-1.617-4.017 0-1.49.161-2.325.716-3.08zM48.62 69.038c1.701-.007 2.654.394 3.752 1.58 1.624 1.754 1.977 5.213.703 6.874-1.21 1.577-2.899 2.35-4.583 2.284-1.31-.05-2.617-.608-3.697-1.69-2.02-2.02-2.285-4.412-.74-6.672 1.422-2.08 1.974-2.366 4.565-2.377zm3.845-34.145c2.828 2.659 1.106 8.335-2.787 9.191-.254.056-.522.084-.802.086-1.956.017-4.395-1.207-5.219-2.748-1.468-2.747-.161-6.71 2.598-7.873 1.828-.771 4.6-.171 6.21 1.344zm125.634-1.01c4.486 2.322 3.93 8.307-.919 9.91-.685.226-1.189.358-1.645.375-.76.03-1.385-.256-2.494-.942-1.12-.693-2.2-1.684-2.398-2.2-1.082-2.822.296-6.421 2.856-7.455 1.868-.755 2.64-.703 4.6.312zm-25.189.108c3.317 1.962 3.684 5.95.8 8.663-1.069 1.004-2.276 1.439-3.448 1.443-3.516.013-6.705-3.854-4.806-7.888 1.459-3.1 4.455-3.991 7.454-2.218zM97.236.678c2.189-.059 4.433-.04 6.736.06-.236.354-.525.699-.865 1.039-1.197 1.199-2.354 1.758-3.646 1.758-1.757 0-3.492-1.168-4.504-2.766z" transform="translate(-78 -254) translate(78 254) translate(28.8 20.8)"/>
                </g>
                <g>
                    <g stroke="#3897C0" stroke-linecap="round" stroke-width="2.4">
                        <path d="M248.013 223.497c-.747-56.396-45.462-121.47-95.207-123.15-34.455-6.546-71.797 11.052-105.191 1.825C32.147 96.584 10.53 81.331 17.265 60.8" transform="translate(-78 -254) translate(78 254) translate(10.4) translate(38.4 27.2) scale(1 -1) rotate(57.156 392.964 0)"/>
                        <path d="M121.6 286.688c3.572-4.266 11.385-13.088 11.385-13.088 5.361 6.286 10.178 11.426 11.587 12.575" transform="translate(-78 -254) translate(78 254) translate(10.4) translate(38.4 27.2) scale(1 -1) rotate(57.156 647.375 0)"/>
                    </g>
                    <g transform="translate(-78 -254) translate(78 254) translate(10.4) translate(178.4 288.8)">
                        <g fill-rule="nonzero">
                            <g transform="rotate(-180 120.532 23.368)">
                                <rect width="238.4" height="45.739" x=".243" fill="#5C5C5C" opacity=".33" rx="22.869"/>
                                <rect width="238.4" height="44.255" x="1.843" y="1.459" fill="#FFF" rx="22.128"/>
                            </g>
                        </g>
                        <circle cx="219.28" cy="23.162" r="12.88" fill="#8BC24A"/>
                        <path fill="#FFF" d="M210.927 24.034L213.387 21.872 216.21 24.923 224.6 17.414 227.103 20.211 216.547 29.559z"/>
                        <text fill="#333" font-family="Almarai-Regular, Almarai" font-size="18">
                            <tspan x="76.018" y="25.8">انتحال للشخصية</tspan>
                        </text>
                    </g>
                    <g transform="translate(-78 -254) translate(78 254) translate(10.4) translate(104 142.4)">
                        <g fill-rule="nonzero">
                            <g transform="rotate(-180 120.532 23.368)">
                                <rect width="238.4" height="45.739" x=".243" fill="#5C5C5C" opacity=".33" rx="22.869"/>
                                <rect width="238.4" height="44.255" x="1.843" y="1.459" fill="#FFF" rx="22.128"/>
                            </g>
                        </g>
                        <circle cx="219.28" cy="23.162" r="12.88" fill="#8BC24A"/>
                        <path fill="#FFF" d="M210.927 24.034L213.387 21.872 216.21 24.923 224.6 17.414 227.103 20.211 216.547 29.559z"/>
                        <text fill="#333" font-family="Almarai-Regular, Almarai" font-size="18">
                            <tspan x="74.794" y="25.8"> اختراق الحسابات </tspan>
                        </text>
                    </g>
                    <g transform="translate(-78 -254) translate(78 254) translate(10.4)">
                        <g fill-rule="nonzero">
                            <g transform="rotate(-180 120.532 23.368)">
                                <rect width="238.4" height="45.739" x=".243" fill="#5C5C5C" opacity=".33" rx="22.869"/>
                                <rect width="238.4" height="44.255" x="1.843" y="1.459" fill="#FFF" rx="22.128"/>
                            </g>
                        </g>
                        <circle cx="219.28" cy="23.162" r="12.88" fill="#8BC24A"/>
                        <path fill="#FFF" d="M210.927 24.034L213.387 21.872 216.21 24.923 224.6 17.414 227.103 20.211 216.547 29.559z"/>
                        <text fill="#333" font-family="Almarai-Regular, Almarai" font-size="18">
                            <tspan x="46.84" y="25.8">حالات الابتزاز والتصيّد</tspan>
                        </text>
                    </g>
                </g>
                <g transform="translate(-78 -254) translate(78 254) translate(0 80.8)">
                    <path fill="#474747" d="M76.754 8.452c2.214 4.21.78 9.738 1.397 14.459.615 8.494.893 17.017 1.377 25.522-2.511.742-7.62 2.488-8.023-1.573.864-12.15 1.696-24.502 3.138-36.485.769-.556 1.16-1.644 2.111-1.923z"/>
                    <ellipse cx="75.17" cy="5.699" fill="#3897C0" fill-rule="nonzero" rx="6.044" ry="5.457" transform="scale(-1 1) rotate(2.222 0 -3870.694)"/>
                    <g fill="#6E96A8">
                        <path d="M21.623 15.762c-1.555.382-3.104.795-4.679 1.087-.976.182-1.957.337-2.94.482-.318.102-.517.405-.605.713-.294.75-.587 1.522-1.105 2.151-.707.943-1.618 1.703-2.496 2.478C8.214 24 6.606 25.305 5.17 26.793c-.656.67-1.272 1.38-1.8 2.157-.789 1.096-1.42 2.302-1.917 3.556-.475 1.21-.834 2.466-1.056 3.746-.145 1.004-.23 2.019-.219 3.033.015.982.113 1.963.292 2.929.154.863.382 1.712.653 2.546.416 1.214.919 2.395 1.438 3.567 1.08 2.353 2.257 4.66 3.402 6.982.21.4.588.681.952.934.79.52 1.71.78 2.585 1.117l2.692.977c-.944-1.896-1.933-3.768-2.926-5.639-.921-1.738-1.862-3.466-2.766-5.213-.578-1.184-1.133-2.387-1.514-3.651-.37-1.243-.584-2.527-.718-3.815-.08-.931-.077-1.869.01-2.8.154-1.654.542-3.288 1.16-4.832.562-1.409 1.312-2.75 2.287-3.918.631-.765 1.347-1.454 2.07-2.132.727-.67 1.499-1.288 2.279-1.895 1.451-1.112 2.92-2.2 4.355-3.333 1.165-.925 2.312-1.875 3.38-2.911.609-.577 1.187-1.183 1.759-1.796.186-.115.434-.453.183-.62-.039-.025-.083-.03-.127-.02h-.001zM42.503.229c-.902.616-1.78 1.266-2.635 1.946-.845.695-1.688 1.394-2.51 2.116-.2.32.2.537.474.553.627.127 1.258.249 1.866.455.7.23 1.386.5 2.048.824 1.002.48 1.98 1.011 2.922 1.601 1.128.712 2.208 1.5 3.24 2.347.833.692 1.633 1.424 2.4 2.188 1.216 1.206 2.375 2.47 3.455 3.798.724.893 1.433 1.8 2.1 2.737.78 1.078 1.525 2.182 2.23 3.31.803 1.266 1.54 2.572 2.233 3.9 1.022 1.99 1.94 4.033 2.738 6.122.61 1.596 1.171 3.21 1.657 4.847.429 1.44.825 2.89 1.144 4.358.4 1.797.7 3.618.868 5.452.166 1.765.209 3.542.112 5.312-.04.878-.123 1.753-.234 2.624-.228 1.885-.64 3.74-.997 5.603l-.699 3.519c.225.387.713.556 1.142.47l3.824-.443c.491-1.036.839-2.133 1.152-3.234.476-1.831.943-3.668 1.26-5.534.193-1.133.338-2.273.447-3.417.15-1.743.186-3.496.097-5.244-.078-1.425-.232-2.846-.48-4.252-.202-1.198-.5-2.378-.835-3.545-.317-1.09-.691-2.163-1.106-3.22-.668-1.706-1.455-3.364-2.304-4.987-1.094-2.057-2.287-4.06-3.533-6.027-1.195-1.875-2.442-3.717-3.75-5.515-1.604-2.19-3.288-4.322-5.06-6.378-1.029-1.17-2.077-2.324-3.16-3.445-.607-.63-1.226-1.249-1.853-1.858-1.106-1.074-2.231-2.128-3.399-3.135-1.315-1.14-2.659-2.247-4.039-3.307-.258-.175-.489-.408-.764-.545L42.531.22l-.028.008z" transform="scale(-1 1) rotate(2.222 -4778.415 -3116.293)"/>
                    </g>
                    <path fill="#CCDAE0" d="M44.816 189.758l.59 18.687 69.052-5.694-2.698-18.746-66.944 5.753zM50.962 219.412c-15.61.847-27.173 14.802-26.583 28.14.44 1.803 1.576 3.224 3.091 4.253l40.825-1.37c6-5.75 5.89-15.381 1.217-21.85-4.267-5.259-11.106-9.149-18.55-9.173zM124.517 219.994c-.94.003-1.882.035-2.802.237-5.284.943-10.21 3.442-14.357 6.808-3.108 2.512-5.837 5.614-7.436 9.306-1.2 2.844-1.153 6.201.185 8.988.44.518 1.023.903 1.582 1.285 1.5.968 3.175 1.616 4.835 2.25 4.931-.181 9.86-.415 14.793-.55 6.452-.158 12.906-.03 19.358.087.794-.04 1.618.166 2.391-.078.613-.301.922-.96 1.286-1.502 1.236-2.093 1.777-4.54 1.856-6.951.127-3.89-.978-7.823-3.158-11.053-1.774-2.566-4.344-4.465-7.055-5.949-3.513-1.885-7.493-2.865-11.478-2.878z"/>
                    <path fill="#333" d="M44.596 144.167l1.437 45.588 66.948-5.752-6.557-45.811-61.828 5.975z"/>
                    <path fill="#724E12" fill-rule="nonzero" d="M159.24 30.143H166.11V306.005H159.24z" transform="rotate(-3.783 162.675 168.074)"/>
                    <g>
                        <path fill="#6E96A8" d="M3.814 3.731c-.216.132-.298.42-.222.654.1.289.237.565.351.849.21.49.42.982.65 1.463.426.857.87 1.705 1.363 2.526.373.613.793 1.197 1.205 1.784.463.638.988 1.227 1.49 1.834.563.622 1.133 1.239 1.751 1.806.44.4.909.77 1.378 1.136.893.63 1.792 1.252 2.727 1.82.64.356 1.286.701 1.937 1.037.814.408 1.655.758 2.492 1.113.471.195.956.356 1.441.51 1.038.324 2.088.61 3.14.885 1.544.393 3.094.766 4.627 1.199 1.003.277 2.006.551 3.004.844 1.133.35 2.268.692 3.385 1.089 2.606.896 5.209 1.8 7.81 2.71 1.724.61 3.443 1.233 5.16 1.86l3.49 1.3c.198.152.55.075.636-.168.071-.235-.104-.47-.264-.625-.238-.21-.46-.438-.701-.646-.558-.515-1.136-1.008-1.716-1.499-.504-.405-1.02-.796-1.564-1.146-.632-.418-1.273-.822-1.94-1.183-.715-.384-1.448-.733-2.175-1.095-.51-.236-1.01-.491-1.525-.713-1.165-.477-2.327-.964-3.515-1.382-.984-.364-1.967-.731-2.968-1.048-.887-.282-1.774-.568-2.667-.83-.869-.23-1.739-.454-2.613-.657-1.778-.42-3.568-.783-5.352-1.176-1.187-.257-2.373-.52-3.557-.788-1.418-.387-2.825-.811-4.233-1.23-.495-.165-.987-.345-1.467-.55-.464-.221-.934-.431-1.381-.683-.571-.335-1.153-.659-1.67-1.077-.568-.43-1.104-.901-1.624-1.388-.337-.346-.685-.684-1.01-1.04-.317-.4-.608-.818-.848-1.267-.22-.39-.428-.791-.546-1.225-.123-.436-.206-.882-.313-1.322-.091-.306-.098-.644-.266-.922-.221-.354-.491-.678-.796-.963-.37-.323-.75-.638-1.146-.928-.479-.312-.978-.597-1.509-.81-.146-.05-.294-.081-.449-.058z" transform="scale(1 -1) rotate(1.505 6194.791 4030.99)"/>
                        <path fill="#333" d="M4.293.014C3.957 2.198 3.725 4.395 3.4 6.58c-.094.65-.233 1.292-.312 1.944-.204 1.446-.423 2.89-.684 4.325-.238 1.194-.45 2.393-.672 3.59-.284 1.815-.552 3.633-.729 5.462L.778 24.08c1.88-.062 3.76-.104 5.637-.224 1.044-.049 2.082-.166 3.12-.284.73-.103 1.463-.21 2.177-.4.504-.155.994-.362 1.433-.657.465-.3.931-.601 1.352-.961.473-.405.898-.865 1.283-1.353.447-.575.858-1.184 1.142-1.858.323-.724.55-1.487.738-2.256.11-.597.191-1.2.216-1.808.03-.457 0-.916-.069-1.368-.093-.467-.182-.937-.344-1.387-.172-.532-.417-1.036-.654-1.542-.331-.656-.676-1.308-1.113-1.902-.354-.482-.723-.954-1.112-1.409-.519-.593-1.074-1.153-1.631-1.71-.46-.445-.949-.857-1.459-1.243-.7-.548-1.414-1.08-2.165-1.558-.655-.435-1.337-.827-2.023-1.21C6.927.746 6.534.564 6.12.443 5.586.302 5.043.191 4.511.038 4.438.03 4.367-.011 4.292.015z" transform="scale(1 -1) rotate(1.505 6194.791 4030.99)"/>
                        <path fill="#CCDAE0" fill-rule="nonzero" d="M61.874 22.666c.253.143.497.297.736.463.814.565 1.539 1.261 2.132 2.054.76 1 1.312 2.155 1.626 3.37.313 1.22.376 2.498.2 3.744-.173 1.189-.564 2.349-1.162 3.392-.637 1.11-1.492 2.095-2.51 2.871-.993.773-2.145 1.336-3.358 1.666-.996.26-2.034.377-3.062.309-1.163-.054-2.301-.362-3.369-.817-.716-.328-1.386-.745-2.005-1.231-.862-.684-1.6-1.526-2.176-2.462-.66-1.067-1.1-2.267-1.29-3.506-.185-1.166-.128-2.359.116-3.512.052-.227.122-.452.189-.675.438.59 1.012 1.076 1.673 1.415 1.099.563 2.367.684 3.525.338 1.157-.347 2.11-1.132 2.647-2.184 1.059-2.072.271-4.646-1.807-5.909.687-.243 1.398-.416 2.122-.496 1.117-.137 2.26-.055 3.352.208.847.206 1.664.532 2.421.962z" transform="scale(1 -1) rotate(1.505 6194.791 4030.99)"/>
                    </g>
                    <g>
                        <g>
                            <path fill="#CCDAE0" d="M15.525 86.196l95.25-1.813-3.268-72.742-90.306-2.134-1.676 76.69z" transform="scale(-1 1) rotate(4.505 -502.858 -1733.587) scale(-1 1) rotate(3.722 -68.334 -1922.523)"/>
                            <path fill="#333" fill-rule="nonzero" d="M36.105 55.556c-1.73.111-3.437.823-4.644 2.08-1.202 1.226-1.838 3.004-1.594 4.712.233 1.96 1.56 3.693 3.284 4.61 1.942 1.075 4.375 1.182 6.414.31 1.732-.737 3.165-2.25 3.619-4.096.408-1.547.091-3.249-.798-4.574-1.204-1.851-3.378-2.967-5.57-3.037-.237-.023-.474-.008-.71-.004zM88.227 55.97c-1.916.112-3.805 1.006-4.992 2.531-1.101 1.39-1.534 3.299-1.067 5.017.476 1.917 1.974 3.486 3.777 4.243 2.207.954 4.899.712 6.871-.673 1.392-.967 2.384-2.515 2.583-4.205.228-1.797-.484-3.646-1.765-4.91-1.401-1.405-3.435-2.114-5.407-2.004z" transform="scale(-1 1) rotate(4.505 -502.858 -1733.587) scale(-1 1) rotate(3.722 -68.334 -1922.523)"/>
                            <path fill="#3897C0" fill-rule="nonzero" d="M10.732 48.345c-.812.365-1.638.705-2.392 1.185-.714.385-1.356.889-2.007 1.368-.642.562-1.296 1.112-1.851 1.763-.57.577-1.03 1.249-1.51 1.898-.447.723-.908 1.439-1.243 2.223-.37.719-.61 1.495-.875 2.256-.212.822-.438 1.641-.524 2.488-.136.765-.137 1.545-.16 2.318.04.847.064 1.696.23 2.53.097.802.341 1.575.554 2.35.291.8.568 1.606.976 2.355.333.736.794 1.404 1.228 2.083.517.676 1.022 1.363 1.634 1.959.539.605 1.18 1.11 1.796 1.63.695.496 1.381 1.004 2.143 1.394.714.428 1.491.736 2.257 1.054l1.328.444v-31.83l-1.584.532zM112.654 77.72c.814-.276 1.634-.536 2.403-.926.755-.317 1.447-.765 2.147-1.185.695-.5 1.4-.987 2.015-1.585.63-.53 1.163-1.163 1.711-1.774.519-.686 1.053-1.362 1.468-2.119.451-.692.768-1.459 1.112-2.206.295-.81.608-1.613.785-2.459.23-.793.31-1.62.42-2.435.045-.86.11-1.72.034-2.58-.019-.795-.175-1.58-.298-2.364-.2-.815-.372-1.638-.696-2.416-.262-.801-.654-1.552-1.024-2.306-.433-.719-.842-1.453-1.376-2.103-.48-.69-1.078-1.283-1.652-1.89-.637-.572-1.264-1.157-1.98-1.63-.65-.498-1.378-.88-2.088-1.282-.776-.357-1.547-.728-2.37-.97-.33-.107-.784-.389-.631.176.007 10.685.011 21.37.022 32.054h-.002z" transform="scale(-1 1) rotate(4.505 -502.858 -1733.587) scale(-1 1) rotate(3.722 -68.334 -1922.523)"/>
                            <path fill="#ACC3CE" fill-rule="nonzero" d="M59.46.314c-1.368.149-2.745.227-4.097.499-.964.148-1.921.333-2.864.585-.901.197-1.786.448-2.658.747-.885.26-1.745.586-2.592.947-.84.311-1.642.71-2.437 1.123-1.062.489-2.023 1.16-3.023 1.758-.869.68-1.799 1.287-2.58 2.07l-.967.895 48.182.011c-.81-.732-1.563-1.531-2.465-2.154-.636-.496-1.282-.978-1.984-1.377-.709-.451-1.426-.887-2.19-1.24-.786-.411-1.584-.796-2.416-1.106-.824-.353-1.662-.669-2.522-.921-.872-.298-1.755-.553-2.655-.75-.946-.25-1.903-.44-2.87-.586C68.273.603 67.21.508 66.145.407c-1.288-.151-2.588-.139-3.883-.19-.934.03-1.868.064-2.802.096v.001z" transform="scale(-1 1) rotate(4.505 -502.858 -1733.587) scale(-1 1) rotate(3.722 -68.334 -1922.523)"/>
                        </g>
                        <path fill="#6E96A8" d="M44.236 89.895l.439 9.446 46.979-3.854-1.829-6.499-45.59.907z" transform="scale(-1 1) rotate(4.505 -502.858 -1733.587)"/>
                    </g>
                    <path fill="#3897C0" fill-rule="nonzero" d="M75.098 146.724c-.53 1.343-.995 2.715-1.5 4.07-.63 1.719-1.248 3.444-1.892 5.158-.28.134-.622-.083-.922-.094-2.918-.562-5.829-1.16-8.755-1.677-.497-.195-.251.248-.086.472 1.562 2.665 3.257 5.251 4.823 7.913.253.315-.26.514-.421.737-1.893 1.73-3.86 3.376-5.777 5.078-.372.343-.785.659-1.116 1.037.675.158 1.412.21 2.112.317 2.639.342 5.278.684 7.918 1.014.23 3.262.343 6.53.554 9.792-.02.552.41-.02.586-.165 2.143-2.024 4.235-4.103 6.417-6.086.233-.355.518-.271.792-.015 2.519 1.727 4.973 3.548 7.48 5.294.362.372.39-.035.32-.358-.258-2.818-.53-5.635-.866-8.445-.075-.197-.015-.882-.208-.762-1.044 1.12-2.123 2.273-3.5 2.985-.234.09-.666.328-.803.025-.86-1.505-1.523-3.113-2.175-4.715-.128-.324-.253-.654-.284-1.004.743-.618 1.503-1.38 1.613-2.39.2-1.436-.94-2.907-2.394-3.037-1.006-.136-2.12.293-2.615 1.212-.547.828-.59 1.955-.056 2.8.386.645.987 1.123 1.63 1.495.174.238-.099.596-.116.876-.436 1.587-.88 3.177-1.43 4.727-.08.275-.29.598-.623.465-2.56-.813-4.64-2.864-5.666-5.324-.606-1.433-.954-3.008-.758-4.567.184-1.569.686-3.13 1.595-4.433.97-1.297 2.163-2.5 3.678-3.14 1.672-.722 3.55-.973 5.353-.715 2.369.351 4.523 1.72 5.982 3.597 1.503 1.942 2.198 4.465 1.954 6.903-.083 1.303-.614 2.51-1.074 3.713-.23.432.411.087.608.083 2.847-.703 5.698-1.4 8.518-2.205.508-.035.141-.345-.114-.49-2.298-1.595-4.682-3.062-7.024-4.591l-.973-.628c1.239-2.93 2.532-5.84 3.684-8.806.243-.448-.074-.44-.41-.265-3.007.966-6.01 1.943-9.027 2.876-1.648-2.861-3.18-5.788-4.868-8.626-.04-.035-.088-.19-.164-.103v.002z"/>
                    <path fill="#6E96A8" d="M30.938 157.836c-1.594 1.047-3.185 2.098-4.78 3.142l-3.978 2.423-13.591 6.16-2.734 1.66-1.757 1.534c-.274.32-.57.623-.801.976-.191.24-.352.5-.515.76-.186.289-.373.577-.53.882-.256.455-.445.942-.664 1.414-.202.521-.44 1.03-.585 1.572-.093.31-.18.623-.264.937-.078.496-.128.995-.175 1.494-.01.397-.02.795.02 1.191.04.552.07 1.104.114 1.654.054.459.115.916.179 1.373.126.444.259.888.429 1.318.167.32.274.667.46.976.187.341.39.673.575 1.016.216.364.493.687.758 1.016.23.262.45.533.71.768.453.444.953.838 1.436 1.249.415.345.836.685 1.275 1 .284.2.573.393.885.547.344.19.695.365 1.048.536.295.16.585.33.898.453.3.15.635.203.954.301.655.189 1.32.347 1.985.496.567.03 1.133.095 1.7.07.315-.025.626-.081.938-.124.32-.05.643-.085.949-.195.386-.133.78-.253 1.148-.433.265-.133.533-.268.764-.455.226-.19.468-.375.631-.623.15-.233.272-.487.342-.753.06-.294.054-.606-.052-.889-.09-.256-.192-.576-.476-.667-.258-.08-.517.025-.775.045-.53.072-1.058.16-1.588.223-.482.045-.963.11-1.447.119-.382-.003-.762-.05-1.138-.116-.396-.06-.795-.1-1.185-.195-.322-.068-.638-.16-.94-.292-.29-.12-.595-.202-.881-.33-.294-.11-.548-.296-.828-.433-.29-.137-.52-.364-.782-.543-.454-.341-.876-.721-1.31-1.087-.235-.24-.467-.483-.668-.752-.272-.34-.538-.683-.807-1.025-.243-.405-.51-.798-.703-1.23-.165-.31-.274-.644-.41-.967-.123-.295-.201-.605-.27-.917-.078-.366-.187-.727-.21-1.102-.055-.411-.02-.827-.045-1.24.035-.304.01-.614.073-.915.084-.548.215-1.092.426-1.606.146-.302.241-.627.397-.924.205-.321.373-.67.636-.95.226-.267.45-.538.693-.788.33-.31.672-.609 1.047-.861.427-.273.84-.571 1.296-.795.545-.292 1.096-.574 1.65-.847.466-.242.93-.486 1.408-.703 1.962-.928 3.923-1.859 5.886-2.785 2.007-.895 4.01-1.801 6.014-2.702 1.134-.704 2.272-1.402 3.403-2.11l.952-.653c.559-.515 1.103-1.045 1.63-1.592.21-.25.438-.486.604-.768.157-.281.34-.555.454-.856.126-.372.224-.752.29-1.139.025-.303.035-.608-.004-.91l-.123-1.043-.04.01z"/>
                    <path fill="#3897C0" fill-rule="nonzero" d="M17.993 181.11c-.917-.02-1.835.07-2.722.306-1.2.318-2.338.868-3.324 1.622-1.048.79-1.928 1.797-2.58 2.934-.664 1.144-1.078 2.423-1.251 3.733-.191 1.506-.03 3.054.46 4.492.419 1.225 1.08 2.369 1.943 3.336.843.943 1.87 1.725 3.015 2.265 1.15.552 2.417.848 3.69.902 1.16.025 2.326-.144 3.418-.543 1.07-.371 2.07-.946 2.937-1.674.992-.831 1.82-1.86 2.413-3.01.691-1.33 1.076-2.816 1.128-4.314.025-1.218-.148-2.442-.554-3.594-.42-1.208-1.076-2.332-1.926-3.29-.842-.942-1.868-1.723-3.013-2.263-1.114-.535-2.34-.827-3.573-.898L18 181.11h-.006z"/>
                    <path fill="#333" d="M43.444 143.93c-.318.091-.65.14-.974.216-1.189.269-2.372.562-3.558.84-.812.199-1.63.377-2.438.589-.978.272-1.944.585-2.905.91-.696.26-1.386.54-2.05.874-.59.291-1.104.707-1.636 1.09-.456.375-.848.819-1.23 1.267-.408.584-.853 1.151-1.14 1.808-.155.332-.321.66-.433 1.011-.173.522-.289 1.061-.383 1.602-.093.514-.138 1.037-.117 1.56.01.62.077 1.24.168 1.854.143.747.332 1.486.575 2.207.157.495.395.96.581 1.443.159.371.375.713.544 1.079.358.64.763 1.251 1.21 1.832.71.969 1.574 1.82 2.52 2.558.378.274.76.547 1.166.776.245.13.55.12.783-.03.292-.164.518-.423.741-.668.433-.52.864-1.04 1.274-1.578.633-.88 1.24-1.781 1.748-2.74.31-.569.601-1.149.882-1.733.42-.924.792-1.87 1.13-2.828.3-.884.592-1.771.848-2.67.2-.692.39-1.387.55-2.09.657-2.752 1.269-5.515 1.965-8.257.068-.305.163-.61.223-.91l-.01-.01-.034-.002z"/>
                    <path fill="#E7E5E2" fill-rule="nonzero" d="M42.304 142.668l-.99 1.694c-3.5 5.995-7.94 10.951-12.777 14.265-1.932 1.323-3.487 2.109-5.74 2.898-4.207 1.476-9.443 2.087-15.262 1.789l-2.72-.993.207.861H4.95s.074.03.078.03l.133.556c1.192 4.982 13.866 50.044 14.5 51.551 1.626 3.873 4.654 7.278 9.541 10.735 5.38 3.805 17.112 9.922 25.304 13.192 7.431 2.966 13.313 4.245 16.429 3.572.98-.212 1.153-.278 1.95-.734 4.406-2.521 10.22-9.51 16.853-20.262 1.67-2.706 4.658-7.879 5.69-9.85 4.076-7.786 5.6-13.07 5.292-18.349l-.06-1.01-4.338-15.099c-4.192-14.588-10.856-37.111-11.176-37.772l-.157-.323-.643.869c-.167.12-.312.222-.506.366-6.098 4.524-12.418 7.368-17.743 7.984-6.447.747-14.946-1.235-22.388-5.218l-1.406-.752z"/>
                    <path fill="#019EC3" fill-rule="nonzero" d="M46.1 154.418l-.771 1.32c-2.728 4.672-6.189 8.535-9.959 11.117-1.506 1.032-2.717 1.644-4.473 2.26-3.279 1.15-7.36 1.625-11.895 1.393l-2.12-.773.16.67h-.055s.058.02.06.026l.105.433c.929 3.882 10.807 39.003 11.3 40.178 1.268 3.018 3.628 5.672 7.437 8.366 4.193 2.966 13.337 7.733 19.721 10.282 5.792 2.312 10.376 3.308 12.804 2.783.765-.165.9-.216 1.52-.572 3.434-1.964 7.965-7.412 13.135-15.791 1.301-2.109 3.63-6.14 4.435-7.677 3.176-6.068 4.365-10.187 4.124-14.3l-.045-.788-3.381-11.768c-3.267-11.37-8.46-28.924-8.71-29.439l-.122-.251-.502.677c-.13.094-.243.173-.394.285-4.753 3.527-9.678 5.743-13.828 6.224-5.026.581-11.65-.963-17.45-4.068l-1.096-.587z"/>
                    <path fill="#333" fill-rule="nonzero" d="M92.063 164.097l-51.59.555h51.752l-.163-.555zm.289.992c-.2 34.16-23.295 61.75-51.762 61.837-4.684-.01-9.346-.781-13.857-2.292.692.556 1.412 1.11 2.198 1.666 5.38 3.806 17.114 9.92 25.306 13.19 7.432 2.967 13.312 4.247 16.428 3.574.98-.212 1.153-.278 1.95-.734 4.406-2.521 10.22-9.51 16.854-20.261 1.67-2.706 4.656-7.879 5.688-9.85 4.076-7.786 5.602-13.07 5.293-18.35l-.06-1.01-4.34-15.099c-1.1-3.834-2.416-8.282-3.699-12.671z" opacity=".1"/>
                    <path fill="#FFF" fill-rule="nonzero" d="M85.5 139.729l-.646.868c-.167.12-.31.223-.504.367-6.098 4.524-12.42 7.369-17.745 7.985-6.448.746-14.945-1.235-22.387-5.218l-1.405-.752-.99 1.692c-3.5 5.995-7.94 10.951-12.777 14.265-1.932 1.323-3.488 2.109-5.74 2.898-4.208 1.476-9.443 2.086-15.262 1.788l-2.72-.992.206.863c-.01 0-.072-.004-.073-.003 0 0 .075.03.078.03l.134.556c.806 3.368 6.719 24.524 10.752 38.688 10.844-24.996 37.394-44.99 71.858-54.116-1.392-4.662-2.507-8.354-2.625-8.597l-.155-.322z" opacity=".1"/>
                    <path fill="#FFF" fill-rule="nonzero" d="M51.817 169.558c-.003 0-.004 0-.01.003-.055.093-.365 2.045-1.183 7.456-.71 4.692-.796 5.217-.893 5.502-.003.004-2.625.035-5.828.059-6.288.052-7.304.065-7.348.094-.035.02.093.16 3.397 3.714 4.314 4.643 5.47 5.914 5.46 6-.01.104-1.363 1.878-3.788 4.976-2.582 3.298-4.169 5.403-4.101 5.442.025.01 5.391-.383 10.975-.811 1.13-.087 2.06-.153 2.07-.147.01.004.279 1.093.596 2.416 1.127 4.7 2.022 8.451 2.256 9.46.233.996.24 1.023.293.954.03-.04.325-.474.658-.965.82-1.213 1.764-2.594 2.944-4.311 2.447-3.558 3.82-5.52 3.874-5.534.074-.02 3.345 1.496 10.218 4.733l1.656.78-.045-.269c-.071-.436-.499-1.874-2.2-7.376-.577-1.868-1.146-3.723-1.264-4.122l-.215-.727-.255.516c-.858 1.734-1.869 3.076-3.165 4.204-.486.421-.894.7-1.067.728-.102.015-.142-.01-.291-.17-.64-.695-4.04-5.619-4.532-6.56-.03-.053-.05-.099-.06-.14 1.49-.82 2.237-2.546 1.814-4.194-.247-.957-.864-1.778-1.716-2.28-.851-.503-1.868-.647-2.826-.4-.105.028-.21.062-.312.1-.093.03-.184.067-.275.106l-.03.015c-.107.045-.211.1-.312.16l-.01.01c-.073.045-.143.089-.213.138-1.306.882-1.917 2.49-1.525 4.016.41 1.589 1.81 2.723 3.449 2.794.001.003.003.01.01.01.093.362-.451 6.214-.728 7.83-.081.472-.118.556-.26.592-.259.067-1.217-.081-2.03-.311-1.054-.3-1.938-.68-2.897-1.25-1.283-.76-2.22-1.557-3.227-2.746-.861-1.017-1.536-2.133-2.07-3.427-.225-.542-.629-1.985-.724-2.58-.242-1.513-.213-3.02.086-4.566.254-1.31.736-2.55 1.482-3.81 1.526-2.58 3.539-4.26 6.256-5.222.694-.246 2.246-.606 2.88-.669 2.415-.238 4.525.196 6.8 1.399 2.182 1.153 3.864 2.836 5.116 5.122.505.92.533.996.958 2.644.26 1.009.401 1.619.435 1.886.133 1.022.12 2.167-.035 3.137-.04.241-.174.906-.302 1.476s-.226 1.062-.218 1.093c.02.068-.146.14 1.568-.693 3.908-1.9 9.834-4.83 9.96-4.924.081-.06-.76-.405-5.939-2.434-4.934-1.933-6.198-2.448-6.22-2.535-.01-.035.607-2.931 1.367-6.443.76-3.511 1.363-6.38 1.338-6.373-.07.02-1.816 1.01-5.122 2.91-4.442 2.552-6.193 3.527-6.312 3.513-.111-.015-1.567-1.741-4.192-4.978-3.145-3.88-4.083-5.008-4.174-5.015l-.002-.006z"/>
                    <g>
                        <path fill="#ACD5E7" d="M9.56.389s-6.097 11.02-7.96 29.35C.23 43.207.603 73.47.603 73.47l19.702.294s-.597-32.579-2.587-46.08C15.729 14.184 9.559.39 9.559.39z" transform="rotate(-2.822 141.083 -2905.972)"/>
                        <path fill="#019EC3" d="M10.271 22.401S9.151 30.16 8.81 43.064c-.252 9.481-.183 30.787-.183 30.787l3.62.206s-.11-22.935-.475-32.44c-.366-9.504-1.5-19.216-1.5-19.216z" transform="rotate(-2.822 141.083 -2905.972)"/>
                    </g>
                </g>
            </g>
        </g>
    </g>
</svg>
