<svg xmlns="http://www.w3.org/2000/svg" width="102" height="74" viewBox="0 0 102 74">
    <g fill="none" fill-rule="evenodd">
        <g>
            <g>
                <path fill="#9BDEDF" d="M60 74c23.748 0 43-13.252 43-37 0-23.748-19.252-37-43-37S17 13.252 17 37c0 23.748 19.252 37 43 37z" transform="translate(-581 -2287) translate(580 2287)"/>
                <g fill-rule="nonzero">
                    <path fill="#E2AC07" d="M4.963 16.35L37.671 16.345 37.667 40.944 4.959 40.95z" transform="translate(-581 -2287) translate(580 2287) scale(-1 1) rotate(3 -268.32 -735.77) rotate(1.354 21.315 28.647)"/>
                    <g fill="#EFEDEC">
                        <path d="M23.375 16.8c0 1.77-.283 3.3-.848 4.588-.553 1.288-1.34 2.354-2.36 3.197-1.007.843-2.224 1.47-3.65 1.879-1.413.397-2.98.596-4.7.596-1.72 0-3.287-.199-4.7-.596-1.413-.41-2.63-1.036-3.65-1.879-1.008-.843-1.794-1.909-2.36-3.197-.552-1.289-.829-2.818-.829-4.589V.776h7.023v14.885c0 .855.068 1.662.203 2.421.135.759.369 1.427.7 2.005.345.566.805 1.018 1.383 1.355.59.337 1.333.506 2.23.506s1.635-.169 2.212-.506c.59-.337 1.057-.789 1.401-1.355.344-.578.584-1.246.72-2.005.134-.759.202-1.566.202-2.42V.775h7.023V16.8z" transform="translate(-581 -2287) translate(580 2287) scale(-1 1) rotate(3 -268.32 -735.77) rotate(-178.646 16.602 14.626)"/>
                    </g>
                    <g>
                        <g fill="#FFF">
                            <path d="M23.371 16.82c0 1.77-.282 3.3-.847 4.588-.553 1.289-1.34 2.355-2.36 3.198-1.008.843-2.224 1.469-3.65 1.878-1.413.398-2.98.596-4.7.596-1.72 0-3.287-.198-4.7-.596-1.414-.41-2.63-1.035-3.65-1.878-1.008-.843-1.795-1.91-2.36-3.198-.553-1.288-.83-2.818-.83-4.588V.797h7.024v14.885c0 .855.067 1.662.202 2.42.136.76.37 1.428.7 2.006.345.566.806 1.017 1.383 1.354.59.338 1.334.506 2.23.506.898 0 1.635-.168 2.213-.506.59-.337 1.057-.788 1.4-1.354.345-.578.584-1.247.72-2.006.135-.758.202-1.565.202-2.42V.797h7.023V16.82z" transform="translate(-581 -2287) translate(580 2287) scale(-1 1) rotate(3 -268.32 -735.77) rotate(1.503 -25.246 78.22) rotate(179.851 14.356 14.063)"/>
                        </g>
                        <path fill="#F9C526" d="M0.845 15.078L33.552 15.078 33.553 39.677 0.845 39.677z" transform="translate(-581 -2287) translate(580 2287) scale(-1 1) rotate(3 -268.32 -735.77) rotate(1.503 -25.246 78.22) rotate(-.149 17.199 27.378)"/>
                    </g>
                    <path fill="#565D63" d="M18.137 21.414c-2.208-.05-4.04 1.637-4.093 3.768-.03 1.35.67 2.617 1.85 3.342l-.926 6.76 5.658.128-.547-6.817c1.188-.678 1.93-1.899 1.963-3.23.052-2.132-1.696-3.901-3.905-3.952z" transform="translate(-581 -2287) translate(580 2287) scale(-1 1) rotate(3 -268.32 -735.77)"/>
                </g>
            </g>
        </g>
    </g>
</svg>
