<svg xmlns="http://www.w3.org/2000/svg" width="107" height="74" viewBox="0 0 107 74">
    <g fill="none" fill-rule="evenodd">
        <g>
            <g>
                <path fill="#9BDEDF" d="M66 74c23.748 0 43-13.252 43-37 0-23.748-19.252-37-43-37S23 13.252 23 37c0 23.748 19.252 37 43 37z" transform="translate(-926 -1977) translate(924 1977)"/>
                <g fill-rule="nonzero">
                    <g>
                        <path fill="#EF6B30" d="M.425 6.785C.453 5.656.872 4.57 1.613 3.698c.8-.943 1.92-1.578 3.16-1.794.434-.073.876-.103 1.317-.088 8.168-.018 16.337-.026 24.508-.023h4.773c1.121.076 2.193.475 3.078 1.147.672.522 1.217 1.182 1.594 1.932.314.646.493 1.347.525 2.061.043.666.043 1.331.077 1.992.254 6.678.5 13.355.735 20.032.119 4.16.243 8.274.338 12.41.048 2.007.11 4.013.134 6.01-.038 1.082-.427 2.125-1.112 2.98-1.018 1.27-2.604 1.987-4.262 1.928-1.628 0-3.255-.046-4.883-.07-3.837-.067-7.674-.149-11.511-.244-4.137-.096-8.273-.184-12.41-.264-.429 0-.854 0-1.283-.037-.611-.057-1.21-.203-1.776-.434-1.047-.422-1.938-1.143-2.553-2.066-.506-.758-.785-1.636-.807-2.538-.038-4.35-.067-8.703-.124-13.052-.043-2.954-.076-5.908-.138-8.856-.086-3.583-.2-7.16-.31-10.738C.606 11.583.527 9.181.449 6.781l-.024.004z" transform="translate(-926 -1977) translate(924 1977) rotate(-7 88.4 -1.7) translate(0 1)"/>
                        <path fill="#020202" d="M41.422 49.272c0 .198.024.397 0 .591-.462.973-1.3 1.731-2.333 2.112-.858.323-1.778.463-2.697.412-3.03-.046-6.057-.088-9.068-.162l-12.28-.273c-3.045-.067-6.09-.13-9.135-.19-.589-.036-1.17-.146-1.728-.327-.933-.283-1.761-.821-2.386-1.549-.418-.508-.66-1.13-.692-1.78v-.924c-.024-1.622-.048-3.235-.134-4.867-.043-.749-.12-1.502-.172-2.255-.062-.842-.086-1.683-.115-2.524C.654 36.38.633 35.225.62 34.069l40.812 15.207-.01-.004zm.172-5.015c.034.776.034 1.557.048 2.334.014.776.024 1.506 0 2.26-.01.317-.078.63-.2.924.071-1.673.066-3.346.119-5.02v-.526l.033.028z" opacity=".03" transform="translate(-926 -1977) translate(924 1977) rotate(-7 88.4 -1.7) translate(0 1)"/>
                        <path fill="#FAF9F8" d="M27.725 6.083h4.72c1.004.071 1.95.482 2.673 1.16.754.712 1.249 1.644 1.408 2.653.058.513.089 1.028.09 1.544.109 3.272.223 6.541.344 9.808.11 3.175.224 6.35.31 9.526.108 3.966.205 7.93.291 11.893 0 .577.024 1.16.029 1.737-.027.95-.36 1.866-.955 2.621-.535.67-1.278 1.155-2.119 1.387-.549.12-1.113.161-1.675.12-1.818-.028-3.632-.05-5.45-.088-5.25-.102-10.467-.222-15.703-.314-.668 0-1.34-.023-2.014-.042-.714-.064-1.403-.292-2.009-.665-.703-.427-1.27-1.035-1.637-1.757-.299-.582-.462-1.221-.477-1.872-.023-3.368-.051-6.737-.086-10.108-.029-2.057-.043-4.114-.086-6.175-.048-2.715-.111-5.428-.191-8.14-.086-3.032-.181-6.06-.267-9.091.022-.947.356-1.862.954-2.612.502-.632 1.186-1.105 1.967-1.359.499-.155 1.022-.224 1.546-.203h9.703l8.634-.023z" transform="translate(-926 -1977) translate(924 1977) rotate(-7 88.4 -1.7) translate(0 1)"/>
                        <path fill="#5C5C5C" d="M28.087.411H15.993c-1.77 0-3.202 1.174-3.202 2.621v2.283c0 1.452 1.432 2.621 3.202 2.621h12.094c1.771 0 3.208-1.17 3.208-2.62V3.031c0-1.447-1.437-2.62-3.208-2.62z" transform="translate(-926 -1977) translate(924 1977) rotate(-7 88.4 -1.7) translate(0 1)"/>
                    </g>
                    <g>
                        <path fill="#6AB447" d="M3.714.465H1.426C1.176.448.927.505.71.628c-.173.139-.297.327-.356.54-.035.257-.05.516-.047.776v6.1c.143.345.435.609.796.721.308.037.615 0 .947 0 1.776 0 3.548 0 5.32-.046.208.014.414-.049.577-.177.227-.154.374-.396.403-.665.038-.311.028-.628.043-.93v-3.05c-.332.302-.668.6-1.005.897V7.72l-6.058.033c0-2.098 0-4.185-.028-6.287h5.911c.086-.006.171.017.242.065.118 0 .16-.098.241-.144.2-.168.389-.34.574-.516-.114-.176-.279-.312-.474-.391C7.509.442 7.22.427 6.93.432H3.695l.019.033zM7.83 1.953L4.386 5.059c-.421-.507-.857-1-1.302-1.492-.133.027-.185.144-.29.209-.246.218-.473.437-.724.66.55.712 1.156 1.395 1.748 2.083l.43.465c.115.024.143-.102.224-.144C6.025 5.445 7.546 4.05 9.09 2.678l-.905-1.074-.355.326v.023zM5.632 11.225c-1.303 0-2.605 0-3.908.028-.34-.01-.68.019-1.013.084-.17.084-.313.213-.413.372-.109.197-.156.422-.137.646-.038.753 0 1.511 0 2.27 0 1.394.038 2.79.062 4.217.13.331.404.588.748.697.285.033.571.042.857.028 1.805 0 3.61 0 5.415-.074.191 0 .376-.071.516-.2.208-.163.337-.404.355-.665.057-.893 0-1.786 0-2.678V14.66c-.322.303-.644.605-.947.903v2.924l-5.96.056-.065-6.268c1.894 0 3.841-.033 5.76-.023.093-.016.19.008.265.065.118 0 .16-.107.241-.158.185-.158.356-.321.53-.465 0-.126-.141-.186-.212-.28-.162-.126-.367-.186-.573-.167h-1.52v-.023zM7.527 12.7l-3.34 3.116c-.426-.498-.843-1-1.293-1.484-.147.033-.203.168-.312.242-.233.205-.474.419-.683.633.474.58.948 1.148 1.422 1.701.246.293.502.577.753.865.147-.05.213-.181.327-.26 1.33-1.232 2.647-2.479 3.978-3.72l.375-.349c-.048-.125-.176-.214-.251-.325l-.63-.758-.35.33.004.01zM5.784 22.05c-1.545 0-3.089 0-4.633.06-.239-.01-.477.037-.692.14-.137.113-.251.25-.336.405-.077.269-.108.549-.09.828 0 1.562.048 3.129.066 4.691 0 .512 0 1.019.034 1.526.128.328.399.584.739.697.296.023.594.023.89 0 1.805 0 3.614-.028 5.424-.088.208-.013.401-.109.535-.265.19-.183.294-.436.284-.698.038-.553 0-1.107 0-1.66 0-.73-.033-1.465-.042-2.195-.11.028-.142.135-.232.191l-.72.688c0 .977.033 1.958.047 2.934l-5.945.065c-.028-2.092-.06-4.183-.095-6.272 1.895 0 3.79-.052 5.685-.047.091-.008.183.015.26.065.114 0 .147-.102.228-.144.18-.172.364-.34.53-.52-.028-.126-.175-.2-.27-.294-.143-.102-.321-.147-.497-.125H5.769l.015.018zm1.544 1.474l-3.273 3.13c-.431-.498-.853-.995-1.298-1.479-.133.023-.18.144-.28.21-.236.218-.473.441-.696.669.682.883 1.421 1.72 2.188 2.567.23-.182.446-.378.65-.586C5.92 26.812 7.2 25.57 8.492 24.338c.104-.051.038-.158-.028-.204l-.796-.93-.341.33v-.01z" transform="translate(-926 -1977) translate(924 1977) rotate(-7 88.4 -1.7) translate(10 14)"/>
                        <path fill="#BEBEBE" d="M19.947 3.674c-2.113 0-4.225 0-6.333.06-.67.01-1.337.09-1.99.237-.132 0-.27.116-.237.242 0 .507 0 1.014-.028 1.516.215.141.466.22.725.228 1.134.118 2.275.156 3.415.111 1.729 0 3.458 0 5.187-.05.741-.002 1.481-.064 2.212-.187.15-.028.298-.072.44-.13.124-.08.071-.219.09-.33 0-.465.043-.898.062-1.344-.142-.163-.407-.177-.63-.219-.966-.121-1.94-.167-2.913-.134zM16.854 14.852c-1.232 0-2.468.033-3.7.065-.671.011-1.34.09-1.994.237-.118.033-.275.084-.28.205v1.558c.114.158.356.162.545.204 1.073.134 2.155.178 3.236.13 1.738-.027 3.476-.041 5.21-.074.824.003 1.646-.077 2.454-.237.142-.033.322-.074.36-.214 0-.516 0-1.042.028-1.562-.137-.163-.402-.168-.616-.214-.895-.112-1.798-.154-2.7-.126l-2.553.028h.01zM18.947 25.877c-2.084.033-4.173.06-6.262.117-.698.01-1.393.103-2.07.274-.112.03-.182.139-.16.25 0 .503 0 1 .028 1.498.226.144.488.223.758.228 1.131.106 2.27.132 3.405.08 1.71-.029 3.425-.052 5.14-.094.735-.008 1.468-.097 2.183-.265.124-.037.242-.13.214-.246 0-.503 0-1-.029-1.502-.095-.154-.336-.163-.516-.2-.89-.124-1.788-.17-2.686-.14h-.005z" transform="translate(-926 -1977) translate(924 1977) rotate(-7 88.4 -1.7) translate(10 14)"/>
                    </g>
                    <path fill="#5C5C5C" d="M24.206 0h-4.412C18.805 0 18.003.67 18 1.498 18 2.328 18.803 3 19.794 3h4.412C25.196 3 26 2.328 26 1.498 25.997.67 25.195 0 24.206 0z" transform="translate(-926 -1977) translate(924 1977) rotate(-7 88.4 -1.7)"/>
                </g>
            </g>
        </g>
    </g>
</svg>
