<svg xmlns="http://www.w3.org/2000/svg" width="130" height="74" viewBox="0 0 130 74">
    <g fill="none" fill-rule="evenodd">
        <g>
            <g>
                <path fill="#9BDEDF" d="M93 74c23.748 0 43-13.252 43-37 0-23.748-19.252-37-43-37S50 13.252 50 37c0 23.748 19.252 37 43 37z" transform="translate(-203 -2287) translate(197 2287)"/>
                <g>
                    <g>
                        <path fill="#ACC3CE" d="M15.991 0.588L18.962 1.494 3.886 46.282 0.309 45.938z" transform="translate(-203 -2287) translate(197 2287) matrix(-1 0 0 1 80 0) rotate(-11.888 73.289 3.946)"/>
                        <g>
                            <path fill="#555753" d="M18.637 11.855L57.002 19.471 57.773 9.48 8.749 0.736z" transform="translate(-203 -2287) translate(197 2287) matrix(-1 0 0 1 80 0) rotate(-11.888 73.289 3.946) rotate(2.396 -11.045 275.848)"/>
                            <path fill="#F3F2F1" d="M56.972 18.488L55.92 30.954 13.917 22.817 18.11 11.17z" transform="translate(-203 -2287) translate(197 2287) matrix(-1 0 0 1 80 0) rotate(-11.888 73.289 3.946) rotate(2.396 -11.045 275.848)"/>
                            <path fill="#36854E" d="M56.2 30.781L55.381 43.544 0.784 29.023 16.677 21.426z" transform="translate(-203 -2287) translate(197 2287) matrix(-1 0 0 1 80 0) rotate(-11.888 73.289 3.946) rotate(2.396 -11.045 275.848)"/>
                            <path fill="#DD4814" d="M8.782 0.886L26.764 19.903 0.366 29.68z" transform="translate(-203 -2287) translate(197 2287) matrix(-1 0 0 1 80 0) rotate(-11.888 73.289 3.946) rotate(2.396 -11.045 275.848)"/>
                        </g>
                        <path fill="#FFF" d="M20.562 15.954L22.071 12.562 23.459 15.685 27.029 15.578 24.687 18.321 27.244 20.204 24.27 20.739 24.718 23.414 22.056 20.931 18.826 22.879 20.194 20.026 16.908 20.387 19.348 18.027 17.535 16.05z" transform="translate(-203 -2287) translate(197 2287) matrix(-1 0 0 1 80 0) rotate(-11.888 73.289 3.946)"/>
                    </g>
                </g>
            </g>
        </g>
    </g>
</svg>
